<svg width="36" height="35" viewBox="0 0 36 35" fill="none" xmlns="http://www.w3.org/2000/svg">
<path d="M13.8 7H22.2C25.4 7 28 9.6 28 12.8V21.2C28 22.7383 27.3889 24.2135 26.3012 25.3012C25.2135 26.3889 23.7383 27 22.2 27H13.8C10.6 27 8 24.4 8 21.2V12.8C8 11.2617 8.61107 9.78649 9.69878 8.69878C10.7865 7.61107 12.2617 7 13.8 7ZM13.6 9C12.6452 9 11.7295 9.37928 11.0544 10.0544C10.3793 10.7295 10 11.6452 10 12.6V21.4C10 23.39 11.61 25 13.6 25H22.4C23.3548 25 24.2705 24.6207 24.9456 23.9456C25.6207 23.2705 26 22.3548 26 21.4V12.6C26 10.61 24.39 9 22.4 9H13.6ZM23.25 10.5C23.5815 10.5 23.8995 10.6317 24.1339 10.8661C24.3683 11.1005 24.5 11.4185 24.5 11.75C24.5 12.0815 24.3683 12.3995 24.1339 12.6339C23.8995 12.8683 23.5815 13 23.25 13C22.9185 13 22.6005 12.8683 22.3661 12.6339C22.1317 12.3995 22 12.0815 22 11.75C22 11.4185 22.1317 11.1005 22.3661 10.8661C22.6005 10.6317 22.9185 10.5 23.25 10.5ZM18 12C19.3261 12 20.5979 12.5268 21.5355 13.4645C22.4732 14.4021 23 15.6739 23 17C23 18.3261 22.4732 19.5979 21.5355 20.5355C20.5979 21.4732 19.3261 22 18 22C16.6739 22 15.4021 21.4732 14.4645 20.5355C13.5268 19.5979 13 18.3261 13 17C13 15.6739 13.5268 14.4021 14.4645 13.4645C15.4021 12.5268 16.6739 12 18 12ZM18 14C17.2044 14 16.4413 14.3161 15.8787 14.8787C15.3161 15.4413 15 16.2044 15 17C15 17.7956 15.3161 18.5587 15.8787 19.1213C16.4413 19.6839 17.2044 20 18 20C18.7956 20 19.5587 19.6839 20.1213 19.1213C20.6839 18.5587 21 17.7956 21 17C21 16.2044 20.6839 15.4413 20.1213 14.8787C19.5587 14.3161 18.7956 14 18 14Z" fill="white"/>
<rect x="0.5" y="0.5" width="34.5224" height="34" rx="17" stroke="white"/>
</svg>
