<svg xmlns="http://www.w3.org/2000/svg" viewBox="0 0 414.17 414.17"><defs><style>.cls-1{fill:#8b44fe;}.cls-2{fill:#fff;}</style></defs><title>Ресурс 13</title><g id="Слой_2" data-name="Слой 2"><g id="Слой_1-2" data-name="Слой 1"><circle class="cls-1" cx="207.09" cy="207.09" r="199.09" transform="translate(-85.78 207.09) rotate(-45)"/><path class="cls-2" d="M207.09,16c105.53,0,191.08,85.55,191.08,191.09S312.62,398.17,207.09,398.17,16,312.62,16,207.09,101.55,16,207.09,16m0-16a207.13,207.13,0,0,0-80.62,397.89A207.14,207.14,0,0,0,287.7,16.28,205.88,205.88,0,0,0,207.09,0Z"/><path class="cls-2" d="M183.46,131.7l100.26,57.89a21.42,21.42,0,0,1,0,37.11L183.46,284.59A21.43,21.43,0,0,1,151.32,266V150.26A21.43,21.43,0,0,1,183.46,131.7Z"/></g></g></svg>