<svg xmlns="http://www.w3.org/2000/svg" viewBox="0 0 426.17 426.17"><defs><style>.cls-1{fill:#fff;}</style></defs><title>Ресурс 3</title><g id="Слой_2" data-name="Слой 2"><g id="Слой_1-2" data-name="Слой 1"><path class="cls-1" d="M213.09,22c105.53,0,191.08,85.55,191.08,191.09S318.62,404.17,213.09,404.17,22,318.62,22,213.09,107.55,22,213.09,22m0-22a213.14,213.14,0,0,0-83,409.42A213.14,213.14,0,0,0,296,16.75,211.86,211.86,0,0,0,213.09,0Z"/><path class="cls-1" d="M320.36,189.88c-25.77,34.27-28.56,31.09-7.3,50.88,20.45,19,24.7,28.16,25.37,29.35,0,0,8.5,14.88-9.43,15l-34,.53c-7.3,1.46-17-5.18-17-5.18-12.75-8.76-24.71-31.48-34-28.56,0,0-9.57,3.06-9.3,23.52a10.19,10.19,0,0,1-2,6.77,11.51,11.51,0,0,1-7,2.92H210.38c-33.61,2.13-63.23-28.82-63.23-28.82S114.74,222.83,86.32,156c-1.86-4.38.13-6.5.13-6.5S88.44,147,94,147l36.4-.26a13.83,13.83,0,0,1,5.84,2.39,9.73,9.73,0,0,1,3.19,4.25,267.58,267.58,0,0,0,13.68,28.42c13.28,27.36,22.32,32,27.5,29.22,0,0,6.77-4.11,5.31-37.19-.53-11.95-3.85-17.4-3.85-17.4-3.06-4.12-8.77-5.31-11.29-5.71-2-.27,1.33-5,5.71-7.17,6.51-3.19,18.06-3.32,31.74-3.19,10.76.13,13.82.8,17.94,1.73,12.62,3.05,8.36,14.74,8.36,42.9,0,9-1.72,21.65,4.79,25.77,2.79,1.86,9.69.26,26.69-28.69a246.18,246.18,0,0,0,14.22-29.89,7.93,7.93,0,0,1,3.32-4.12,8.72,8.72,0,0,1,5.05-.79l38.25-.27c11.56-1.46,13.41,3.85,13.41,3.85C342.28,156.28,336,169,320.36,189.88Z"/></g></g></svg>