<svg width="35" height="35" viewBox="0 0 35 35" fill="none" xmlns="http://www.w3.org/2000/svg">
<path d="M27.8365 23.8962H25.4604C24.5615 23.8962 24.2906 23.1681 22.6792 21.5556C21.2708 20.1983 20.676 20.0295 20.3198 20.0295C19.8271 20.0295 19.6927 20.165 19.6927 20.8431V22.9806C19.6927 23.5587 19.5052 23.8972 17.9948 23.8972C16.5295 23.7988 15.1085 23.3537 13.8489 22.5984C12.5894 21.8432 11.5272 20.7996 10.75 19.5535C8.90457 17.2566 7.62053 14.5609 7 11.6806C7 11.3243 7.13542 11.0014 7.81458 11.0014H10.1896C10.8 11.0014 11.0198 11.2733 11.2594 11.9014C12.4125 15.2952 14.3802 18.2472 15.1792 18.2472C15.4854 18.2472 15.6187 18.1118 15.6187 17.3483V13.8525C15.5177 12.2577 14.6708 12.1233 14.6708 11.5462C14.6815 11.394 14.7512 11.2519 14.865 11.1502C14.9788 11.0484 15.1277 10.9951 15.2802 11.0014H19.0135C19.524 11.0014 19.6927 11.2556 19.6927 11.866V16.5847C19.6927 17.0941 19.9115 17.2629 20.0656 17.2629C20.3719 17.2629 20.6073 17.0941 21.1687 16.5337C22.3722 15.066 23.3555 13.4308 24.0875 11.6795C24.1624 11.4693 24.3041 11.2893 24.4908 11.1671C24.6776 11.0448 24.8992 10.987 25.1219 11.0025H27.4979C28.2104 11.0025 28.3615 11.3587 28.2104 11.867C27.3462 13.8029 26.2769 15.6405 25.0208 17.3483C24.7646 17.7389 24.6625 17.942 25.0208 18.4004C25.2562 18.7566 26.0896 19.4525 26.649 20.1139C27.4635 20.9264 28.1396 21.866 28.651 22.8952C28.8552 23.5577 28.5146 23.8962 27.8365 23.8962Z" fill="white"/>
<rect x="0.5" y="0.5" width="34" height="34" rx="17" stroke="white"/>
</svg>
