<svg xmlns="http://www.w3.org/2000/svg" viewBox="0 0 426.17 426.17"><defs><style>.cls-1{fill:#fff;}</style></defs><title>Ресурс 11</title><g id="Слой_2" data-name="Слой 2"><g id="Слой_1-2" data-name="Слой 1"><path class="cls-1" d="M213.09,22c105.53,0,191.08,85.55,191.08,191.09S318.62,404.17,213.09,404.17,22,318.62,22,213.09,107.55,22,213.09,22m0-22a213.14,213.14,0,0,0-83,409.42A213.14,213.14,0,0,0,296,16.75,211.86,211.86,0,0,0,213.09,0Z"/><path class="cls-1" d="M295.41,132.73c4.6.52,14.71.52,23.64,10,0,0,7.22,7.09,9.32,23.37a318.8,318.8,0,0,1,2.36,38.08V222a318.8,318.8,0,0,1-2.36,38.08c-2.1,16.15-9.32,23.37-9.32,23.37-8.93,9.33-19,9.33-23.64,9.85,0,0-32.82,2.5-82.32,2.5-61.19-.53-80-2.37-80-2.37-5.25-.92-17.07-.65-26-10,0,0-7.22-7.22-9.32-23.37A318.8,318.8,0,0,1,95.44,222V204.16a318.8,318.8,0,0,1,2.36-38.08c2.1-16.28,9.32-23.37,9.32-23.37,8.93-9.46,19-9.46,23.64-10,0,0,32.82-2.36,82.33-2.36S295.41,132.73,295.41,132.73Zm-43.07,78L188.79,177.5v66.05Z"/></g></g></svg>