<svg xmlns="http://www.w3.org/2000/svg" viewBox="0 0 456.11 123.6"><defs><style>.cls-1{fill:#fff;}.cls-2{fill:#000;}</style></defs><title>Ресурс 16</title><g id="Слой_2" data-name="Слой 2"><g id="Слой_1-2" data-name="Слой 1"><path class="cls-1" d="M35.36,122.1c-9.27-.09-16.06-8.55-21.49-16.81C.4,84.8-2.45,59.26,7.09,44.57,13.32,35,23.26,29,33.05,29c5.07,0,9,1.41,12.88,2.78,3.24,1.16,6.31,2.25,9.67,2.25,3.07,0,5.62-1,8.57-2.08a36.14,36.14,0,0,1,13.9-3c8.61,0,17.49,4.67,23.76,12.49a1.47,1.47,0,0,1,.3,1.23,1.46,1.46,0,0,1-.75,1A23.5,23.5,0,0,0,88.87,66.51a24.35,24.35,0,0,0,15.75,21.36,1.53,1.53,0,0,1,.86.83,1.49,1.49,0,0,1,0,1.19,86,86,0,0,1-7.75,14.47C92,113.07,84.91,122,75.85,122.08h-.18a19.76,19.76,0,0,1-8.88-2.33,23.17,23.17,0,0,0-10.91-2.63h-.16a24.68,24.68,0,0,0-11.17,2.66,20.5,20.5,0,0,1-9,2.32Z"/><path class="cls-2" d="M78.07,30.53c8,0,16.53,4.37,22.59,11.93C80.81,53.34,84,81.69,104.09,89.27a83.75,83.75,0,0,1-7.64,14.27c-5,7.55-12,17-20.62,17h-.16c-7.52,0-9.56-5-19.79-5h-.17c-10.38.06-12.6,5-20.18,5h-.16c-8.66-.08-15.29-8.58-20.25-16.13C1.25,83.35-.2,58.56,8.35,45.38,14.43,36,24,30.54,33.05,30.54c9.18,0,15,5,22.55,5,7.36,0,11.85-5,22.47-5m0-3a37.52,37.52,0,0,0-14.43,3.06c-2.81,1.06-5.24,2-8,2-3.1,0-5.91-1-9.17-2.16-3.78-1.35-8-2.87-13.38-2.87-10.29,0-20.72,6.21-27.21,16.21-9.85,15.17-7,41.4,6.77,62.37,5.65,8.59,12.76,17.38,22.74,17.48h.18a21.82,21.82,0,0,0,9.63-2.45,23.06,23.06,0,0,1,10.56-2.53h.16a21.59,21.59,0,0,1,10.28,2.49,21,21,0,0,0,9.51,2.47h.19c9.77-.09,17.16-9.35,23.1-18.4a87.77,87.77,0,0,0,7.87-14.67,3,3,0,0,0,0-2.38,2.94,2.94,0,0,0-1.71-1.66A22.89,22.89,0,0,1,90.36,66.41,22.05,22.05,0,0,1,102.1,45.09,3,3,0,0,0,103.6,43a3,3,0,0,0-.6-2.46c-6.55-8.17-15.87-13-24.93-13Z"/><path class="cls-1" d="M51.84,32.79a1.49,1.49,0,0,1-1.43-1.23c-1.16-6.3,1.16-13.72,6.19-19.84C61.18,6.16,69,2,75.64,1.5h.1a1.5,1.5,0,0,1,1.48,1.28c1,6.67-1.2,14-6,20.23-4.63,5.95-12,9.79-18.8,9.79Z"/><path class="cls-2" d="M75.74,3C76.8,10.15,73.87,17.14,70,22.09c-4,5.18-10.9,9.21-17.62,9.21h-.51c-1.26-6.84,2-13.87,5.87-18.62,4.31-5.23,11.68-9.24,18-9.67m0-3h-.21C68.41.5,60.34,4.82,55.45,10.76c-5.32,6.46-7.75,14.34-6.51,21.07a3,3,0,0,0,2.85,2.46h.61c7.23,0,15.08-4.07,20-10.36,5.07-6.52,7.38-14.31,6.33-21.38a3,3,0,0,0-3-2.56Z"/><path class="cls-1" d="M166.87,105.07a1.49,1.49,0,0,1-1.42-1l-5.76-17H142.6L137,104a1.5,1.5,0,0,1-1.42,1h-9.1a1.48,1.48,0,0,1-1.22-.63,1.45,1.45,0,0,1-.2-1.35l19.87-58.51a1.51,1.51,0,0,1,1.42-1h9.9a1.51,1.51,0,0,1,1.42,1l20,58.5a1.5,1.5,0,0,1-1.42,2ZM156.65,77,152,63.43c-.32-1-.62-2-.89-3-.29,1-.57,1.92-.86,2.83L145.61,77Z"/><path class="cls-2" d="M156.26,45.06l20,58.51h-9.35l-6.1-18H141.52l-5.93,18h-9.1l19.87-58.51h9.9M143.52,78.45h15.24L153.4,62.94c-.93-2.93-1.65-5.64-2.32-8.26-.72,2.89-1.48,5.62-2.28,8.16l-5.28,15.61m12.74-36.39h-9.9a3,3,0,0,0-2.84,2l-19.87,58.5a3,3,0,0,0,.4,2.72,3,3,0,0,0,2.44,1.25h9.1a3,3,0,0,0,2.85-2.06l5.25-15.91h14.93L164,104.53a3,3,0,0,0,2.84,2h9.35a3,3,0,0,0,2.84-4l-20-58.5a3,3,0,0,0-2.84-2ZM147.7,75.45l3.39-10,3.46,10Z"/><path class="cls-1" d="M179.8,121.84a1.5,1.5,0,0,1-1.5-1.5V75.25c0-5.72-.1-9.68-.33-13.24l-.05-.75a1.51,1.51,0,0,1,1.5-1.6h8.09a1.5,1.5,0,0,1,1.5,1.41l.14,2.24a18.55,18.55,0,0,1,12.79-4.58,18.34,18.34,0,0,1,14.15,6.52c3.6,4.23,5.5,9.94,5.5,16.52,0,7.44-2.19,13.68-6.33,18.06a19.72,19.72,0,0,1-14.5,6.17,17.88,17.88,0,0,1-10.6-3.27v17.61a1.5,1.5,0,0,1-1.5,1.5Zm10.61-44.7a12.66,12.66,0,0,0-.25,1.92v7.12a9.94,9.94,0,0,0,.26,2.47,9.25,9.25,0,0,0,9,7.11c6.42,0,10.26-5.1,10.26-13.65,0-6.5-3.07-13-9.93-13a9.72,9.72,0,0,0-9.2,7.4C190.51,76.63,190.41,77.14,190.41,77.14Z"/><path class="cls-2" d="M201.94,60.23a16.85,16.85,0,0,1,13,6c3.36,4,5.14,9.32,5.14,15.54,0,7-2,12.93-5.92,17a18.28,18.28,0,0,1-13.41,5.7,15.52,15.52,0,0,1-12.1-5.2v21H179.8V75.25c0-5.73-.1-9.72-.33-13.34l-.05-.75h8.09l.36,5.82c3.21-4.42,8-6.75,14.07-6.75m-2.54,37c7.25,0,11.76-5.81,11.76-15.15,0-7.24-3.54-14.55-11.43-14.55a11.21,11.21,0,0,0-10.67,8.6c0,.23-.08.47-.12.72a12.9,12.9,0,0,0-.28,2.18v7.12A11.51,11.51,0,0,0,189,89a10.73,10.73,0,0,0,10.43,8.22m2.54-40a20.73,20.73,0,0,0-11.52,3.2,3,3,0,0,0-2.91-2.27h-8.09a3,3,0,0,0-3,3.2l.05.74c.24,3.54.33,7.47.33,13.15v45.09a3,3,0,0,0,3,3h8.86a3,3,0,0,0,3-3V105.4a20.11,20.11,0,0,0,9.1,2.1,21.24,21.24,0,0,0,15.59-6.64c4.41-4.66,6.74-11.26,6.74-19.09,0-6.94-2-13-5.86-17.49a19.8,19.8,0,0,0-15.29-7.05ZM192,76.78a8.21,8.21,0,0,1,7.73-6.22c6.22,0,8.43,6.22,8.43,11.55,0,7.61-3.28,12.15-8.76,12.15a7.75,7.75,0,0,1-7.52-5.93.24.24,0,0,0,0-.08,8.48,8.48,0,0,1-.2-2.07V79.06a10.78,10.78,0,0,1,.22-1.59v-.06l0-.18c0-.15.06-.3.08-.45Z"/><path class="cls-1" d="M225.39,121.84a1.5,1.5,0,0,1-1.5-1.5V75.25c0-5.7-.11-9.66-.34-13.24l-.05-.76a1.52,1.52,0,0,1,.41-1.12,1.5,1.5,0,0,1,1.09-.47h8.09a1.5,1.5,0,0,1,1.5,1.41l.14,2.25a19.27,19.27,0,0,1,26.94,1.93c3.6,4.23,5.5,9.94,5.5,16.52,0,7.43-2.19,13.67-6.33,18.06A19.75,19.75,0,0,1,246.33,106a17.9,17.9,0,0,1-10.59-3.27v17.61a1.5,1.5,0,0,1-1.5,1.5ZM236,77.14a11.22,11.22,0,0,0-.26,1.92v7.12a9.82,9.82,0,0,0,.26,2.47,9.25,9.25,0,0,0,9,7.11c6.42,0,10.25-5.1,10.25-13.65,0-6.5-3.06-13-9.91-13a9.71,9.71,0,0,0-9.21,7.42Z"/><path class="cls-2" d="M247.52,60.23a16.85,16.85,0,0,1,13,6c3.36,4,5.14,9.32,5.14,15.54,0,7-2.05,12.93-5.92,17a18.29,18.29,0,0,1-13.42,5.7,15.51,15.51,0,0,1-12.09-5.2v21h-8.85V75.25c0-5.73-.11-9.71-.35-13.34l0-.75h8.09l.36,5.82c3.21-4.42,8-6.75,14.07-6.75m-2.54,37c7.25,0,11.75-5.81,11.75-15.15,0-7.24-3.53-14.55-11.41-14.55a11.19,11.19,0,0,0-10.67,8.6c0,.23-.09.47-.13.71a13,13,0,0,0-.28,2.19v7.12a11.51,11.51,0,0,0,.31,2.86A10.73,10.73,0,0,0,245,97.26m2.54-40A20.73,20.73,0,0,0,236,60.43a3,3,0,0,0-2.91-2.27H225a3,3,0,0,0-2.18,1,3,3,0,0,0-.82,2.23l.05.75c.24,3.56.34,7.49.34,13.16v45.09a3,3,0,0,0,3,3h8.85a3,3,0,0,0,3-3V105.4a20.1,20.1,0,0,0,9.09,2.1,21.24,21.24,0,0,0,15.6-6.64c4.41-4.67,6.74-11.27,6.74-19.09,0-6.94-2-13-5.86-17.49a19.77,19.77,0,0,0-15.29-7.05ZM237.58,76.8a8.2,8.2,0,0,1,7.74-6.24c6.21,0,8.41,6.22,8.41,11.55,0,7.61-3.27,12.15-8.75,12.15a7.75,7.75,0,0,1-7.52-5.93.24.24,0,0,0,0-.08,8.33,8.33,0,0,1-.2-2.07V79.06a12.17,12.17,0,0,1,.23-1.65c0-.2.08-.41.11-.61Z"/><path class="cls-1" d="M298.94,106c-5.68,0-12.17-1.69-15.79-4.1l-.43-.29a1.49,1.49,0,0,1-.6-1.7l2.37-7.55a1.49,1.49,0,0,1,.92-1,1.54,1.54,0,0,1,.52-.09,1.52,1.52,0,0,1,.8.23l.77.5a22.76,22.76,0,0,0,11.95,3.38c6.11,0,9.75-2.82,9.75-7.55,0-3.62-1.53-6.29-9.33-9.21-11.26-4.09-16.51-9.92-16.51-18.32,0-10.43,8.5-17.71,20.67-17.71,7.55,0,12.06,2.17,13.65,3.1l.49.29a1.48,1.48,0,0,1,.66,1.77l-2.49,7.39a1.51,1.51,0,0,1-.92.93,1.43,1.43,0,0,1-.5.09,1.57,1.57,0,0,1-.79-.22l-.75-.47a18.62,18.62,0,0,0-9.61-2.38c-6.31,0-8.56,3.43-8.56,6.36,0,3.46,1.49,5.69,10,9,11.14,4.4,15.89,10,15.89,18.83C321.05,95.92,315.26,106,298.94,106Z"/><path class="cls-2" d="M304,44.13c7.18,0,11.41,2,12.89,2.89l.49.29-2.49,7.39-.75-.46a20.09,20.09,0,0,0-10.4-2.61c-6.95,0-10.06,3.95-10.06,7.86,0,4.65,2.65,7.16,10.91,10.36,10.61,4.19,14.93,9.24,14.93,17.43,0,7.94-5.39,17.22-20.61,17.22-5.32,0-11.61-1.62-14.95-3.85l-.44-.29,2.38-7.55.76.49a24.23,24.23,0,0,0,12.76,3.62c6.94,0,11.25-3.47,11.25-9,0-4.93-2.79-7.8-10.31-10.61-10.6-3.86-15.53-9.23-15.53-16.92,0-9.54,7.88-16.21,19.17-16.21m0-3c-13,0-22.17,7.9-22.17,19.21,0,9,5.73,15.45,17.51,19.74,7.7,2.88,8.33,5.23,8.33,7.79,0,5.46-5.77,6-8.25,6a21.15,21.15,0,0,1-11.14-3.15l-.77-.49a3,3,0,0,0-4.48,1.63l-2.37,7.55a3,3,0,0,0,1.2,3.41l.44.28c3.83,2.56,10.66,4.35,16.61,4.35,16.31,0,23.61-10.16,23.61-20.22,0-9.52-5-15.56-16.83-20.22-8.38-3.24-9-5.1-9-7.57s1.86-4.86,7.06-4.86a17.18,17.18,0,0,1,8.81,2.16l.76.46a3,3,0,0,0,1.58.45,3,3,0,0,0,1-.18,3,3,0,0,0,1.83-1.86l2.5-7.39a3,3,0,0,0-1.33-3.55l-.5-.29c-1.69-1-6.48-3.3-14.4-3.3Z"/><path class="cls-1" d="M338.43,106a12.84,12.84,0,0,1-9.67-3.85c-2.33-2.62-3.46-6.62-3.46-12.24V69.74h-4.85a1.5,1.5,0,0,1-1.5-1.5V61.16a1.5,1.5,0,0,1,1.5-1.5h4.85V53.81a1.49,1.49,0,0,1,1.05-1.43L335,49.65a1.69,1.69,0,0,1,.45-.07,1.5,1.5,0,0,1,.88.29,1.52,1.52,0,0,1,.62,1.21v8.58h9.17a1.5,1.5,0,0,1,1.5,1.5v7.08a1.5,1.5,0,0,1-1.5,1.5H337V89.65c0,5.33,1.6,5.77,3.39,5.77a12.21,12.21,0,0,0,3.68-.41l.85-.26a1.31,1.31,0,0,1,.44-.07,1.5,1.5,0,0,1,1.49,1.41l.43,7.09a1.5,1.5,0,0,1-1,1.5l-.49.18A22.61,22.61,0,0,1,338.43,106Z"/><path class="cls-2" d="M335.49,51.08V61.16h10.67v7.08H335.49V89.65c0,5.1,1.46,7.27,4.89,7.27a13.46,13.46,0,0,0,4.12-.48l.85-.26.42,7.09-.5.17a20.61,20.61,0,0,1-6.84,1.06,11.38,11.38,0,0,1-8.56-3.36c-2.06-2.32-3.07-6-3.07-11.23V68.24h-6.35V61.16h6.35V53.81l8.69-2.73m0-3a3,3,0,0,0-.9.14L325.91,51a3,3,0,0,0-2.11,2.86v4.35h-3.35a3,3,0,0,0-3,3v7.08a3,3,0,0,0,3,3h3.35V89.91c0,6,1.25,10.33,3.83,13.22a14.3,14.3,0,0,0,10.8,4.37,23.77,23.77,0,0,0,7.84-1.23l.5-.18a3,3,0,0,0,2-3L348.34,96a3,3,0,0,0-3-2.82,2.93,2.93,0,0,0-.88.13l-.85.26a10.38,10.38,0,0,1-3.24.35c-1,0-1.89,0-1.89-4.27V71.24h7.67a3,3,0,0,0,3-3V61.16a3,3,0,0,0-3-3h-7.67V51.08a3,3,0,0,0-3-3Z"/><path class="cls-1" d="M367.42,106c-12.87,0-21.85-9.58-21.85-23.3,0-14.11,9.26-24,22.53-24A21.17,21.17,0,0,1,384,65.26c4,4.22,6.05,10,6.05,16.68C390,98.47,378.36,106,367.5,106Zm.42-37.28c-7.14,0-10.34,6.9-10.34,13.73,0,7.86,4.25,13.56,10.09,13.56,6,0,10.34-5.81,10.34-13.81C377.93,75.71,374.77,68.72,367.84,68.72Z"/><path class="cls-2" d="M368.1,60.23a19.72,19.72,0,0,1,14.8,6.06c3.69,3.94,5.64,9.35,5.64,15.65,0,15.5-10.9,22.56-21,22.56h-.08c-12,0-20.35-9-20.35-21.8,0-13.23,8.64-22.47,21-22.47m-.51,37.28h.09c6.8,0,11.75-6.44,11.75-15.31,0-7.22-3.62-15-11.59-15-8.17,0-11.84,7.65-11.84,15.23,0,8.73,4.88,15.06,11.59,15.06m.51-40.28a23.4,23.4,0,0,0-17.35,7.23c-4.31,4.6-6.68,11.08-6.68,18.24,0,7,2.3,13.28,6.49,17.76a22.69,22.69,0,0,0,16.86,7h.08a23.94,23.94,0,0,0,16.36-6.27c3.5-3.25,7.68-9.23,7.68-19.29,0-7.08-2.23-13.2-6.45-17.71a22.65,22.65,0,0,0-17-7Zm-.51,37.28c-5,0-8.59-5.07-8.59-12.06,0-5.64,2.32-12.23,8.84-12.23,6.8,0,8.59,7.83,8.59,12,0,7.13-3.68,12.31-8.75,12.31Z"/><path class="cls-1" d="M393.92,105.07a1.54,1.54,0,0,1-1.07-.44,1.51,1.51,0,0,1-.43-1.07l.08-28.91c0-5.35-.1-9.25-.33-12.64l-.05-.75a1.51,1.51,0,0,1,1.49-1.6h7.95a1.51,1.51,0,0,1,1.5,1.44l.07,1.87a13.52,13.52,0,0,1,9.79-4.24,10.26,10.26,0,0,1,2.56.32l.54.14a1.51,1.51,0,0,1,1.13,1.45V68.9a1.5,1.5,0,0,1-.5,1.12,1.47,1.47,0,0,1-1,.38h-.16l-.94-.1a20.51,20.51,0,0,0-2.22-.14c-3.9,0-7,3-7.84,7.69a20.26,20.26,0,0,0-.22,3.16v22.56a1.5,1.5,0,0,1-1.5,1.5Z"/><path class="cls-2" d="M412.92,60.23a8.3,8.3,0,0,1,2.2.28l.53.13V68.9l-.95-.09a21.18,21.18,0,0,0-2.37-.15c-4.66,0-8.32,3.5-9.32,8.92a22.79,22.79,0,0,0-.24,3.43v22.56h-8.85L394,74.65c0-5.31-.1-9.24-.33-12.74l-.06-.75h7.95l.26,6.2a12.62,12.62,0,0,1,11.1-7.13m0-3a14.8,14.8,0,0,0-8.6,2.75,3,3,0,0,0-2.76-1.82h-7.95a3,3,0,0,0-2.19,1,3.08,3.08,0,0,0-.8,2.26l.05.74c.23,3.35.33,7.22.33,12.54l-.08,28.91a3,3,0,0,0,3,3h8.85a3,3,0,0,0,3-3V81a20.44,20.44,0,0,1,.2-2.93c.75-4,3.18-6.42,6.36-6.42.72,0,1.3.06,2,.12h.1l.93.1h.31a3,3,0,0,0,3-3V60.64a3,3,0,0,0-2.26-2.91l-.54-.13a11.37,11.37,0,0,0-2.93-.37Z"/><path class="cls-1" d="M436.4,105.92c-13.59,0-22.37-9-22.37-22.88,0-14.36,8.85-24.39,21.52-24.39,14.07,0,19.06,11.59,19.06,21.51a20.81,20.81,0,0,1-.3,4l-.11.57a1.51,1.51,0,0,1-1.47,1.2l-26.94-.08c1.11,8.51,7.66,9.83,11.62,9.83a26,26,0,0,0,10.53-1.87l.74-.3a1.55,1.55,0,0,1,.56-.11,1.48,1.48,0,0,1,.68.16,1.5,1.5,0,0,1,.77,1l1.7,6.59a1.49,1.49,0,0,1-.83,1.74l-.53.24A35.37,35.37,0,0,1,436.4,105.92Zm6.47-29.82a10.12,10.12,0,0,0-2.48-5.69,7.29,7.29,0,0,0-5.43-2c-4.92,0-7.67,3.73-8.78,7.72Z"/><path class="cls-2" d="M435.55,60.15c13,0,17.56,10.78,17.56,20a19.64,19.64,0,0,1-.27,3.7l-.11.56-28.57-.08c.54,11.56,9.41,12.83,13.25,12.83a27.45,27.45,0,0,0,11.09-2l.74-.3,1.7,6.6-.53.24a34,34,0,0,1-14,2.69c-12.68,0-20.87-8.4-20.87-21.38,0-13.48,8.24-22.89,20-22.89M424.32,77.6h20.19c-.06-1.83-.51-5.65-3.05-8.24a8.74,8.74,0,0,0-6.5-2.48c-6.62,0-9.82,5.61-10.64,10.72m11.23-20.45a21.82,21.82,0,0,0-16.69,7.41c-4.08,4.67-6.33,11.24-6.33,18.48,0,14.58,9.59,24.38,23.87,24.38a36.86,36.86,0,0,0,15.24-3l.54-.24a3,3,0,0,0,1.67-3.48l-1.7-6.6a3,3,0,0,0-2.91-2.25,2.9,2.9,0,0,0-1.12.22l-.74.3a24.72,24.72,0,0,1-10,1.76c-3.83,0-8.34-1.27-9.8-6.82l25.11.07h0a3,3,0,0,0,2.94-2.4l.11-.56a22.45,22.45,0,0,0,.33-4.3c0-11.45-6.36-23-20.56-23ZM428.31,74.6c1-2.3,3-4.72,6.65-4.72a5.8,5.8,0,0,1,4.36,1.58A7.3,7.3,0,0,1,441,74.6Z"/><path class="cls-1" d="M133.74,34.17a63.44,63.44,0,0,1-7.43-.34A1.49,1.49,0,0,1,125,32.34V5.1a1.5,1.5,0,0,1,1.3-1.49A66.06,66.06,0,0,1,135,3c6,0,10.41,1.23,13.42,3.76,3.26,2.64,4.92,6.39,4.92,11.13A15.48,15.48,0,0,1,148.4,29.8C145.17,32.66,140.1,34.17,133.74,34.17ZM132,28.26c.75,0,1.62,0,2.52,0h.12c3.78,0,6.68-.9,8.63-2.69s2.85-4.27,2.85-7.56a8.66,8.66,0,0,0-2.24-6.4c-1.84-1.84-4.77-2.78-8.72-2.78A28.32,28.32,0,0,0,132,9Z"/><path class="cls-2" d="M135,4.53c5.7,0,9.77,1.15,12.46,3.41s4.38,5.5,4.38,10a14,14,0,0,1-4.43,10.76c-2.92,2.59-7.67,4-13.65,4a63,63,0,0,1-7.25-.33V5.1A64.13,64.13,0,0,1,135,4.53m-.34,25.26c8.41,0,13-4.31,13-11.75,0-6.61-4.06-10.68-12.46-10.68a25.56,25.56,0,0,0-4.66.37v21.9a29.49,29.49,0,0,0,4,.16h.12M135,1.53a67.29,67.29,0,0,0-8.89.6,3,3,0,0,0-2.6,3V32.34a3,3,0,0,0,2.64,3,64.3,64.3,0,0,0,7.61.35c6.73,0,12.14-1.64,15.64-4.74a16.92,16.92,0,0,0,5.44-13c0-5.21-1.85-9.36-5.49-12.31-3.26-2.74-8-4.08-14.35-4.08ZM133.5,10.4c.49,0,1,0,1.66,0,3.49,0,6.13.81,7.65,2.34A7.14,7.14,0,0,1,144.62,18c0,5.91-3.26,8.77-10,8.77H133.5V10.4Z"/><path class="cls-1" d="M166.06,34.37c-7,0-12.09-4.93-12.09-11.73,0-7.1,5.12-12.06,12.45-12.06,7.15,0,12.14,4.81,12.14,11.69,0,8.32-6.46,12.1-12.46,12.1Zm.23-18.07c-3.88,0-5.26,3.35-5.26,6.22,0,3.56,2.15,6.14,5.12,6.14s5.26-2.64,5.26-6.27C171.41,20.13,170.33,16.3,166.29,16.3Z"/><path class="cls-2" d="M166.42,12.08c6.35,0,10.64,4.15,10.64,10.19,0,7.4-5.71,10.6-10.95,10.6h-.05c-5.94,0-10.59-3.94-10.59-10.23,0-6.65,4.88-10.56,10.95-10.56m-.27,18.08h0c3.84,0,6.72-3.25,6.72-7.77,0-3.36-1.88-7.59-6.62-7.59s-6.76,3.94-6.76,7.72c0,4.35,2.74,7.64,6.62,7.64m.27-21.08c-8.08,0-13.95,5.71-13.95,13.56,0,7.67,5.71,13.23,13.59,13.23,6.77,0,14-4.25,14-13.6,0-7.76-5.61-13.19-13.64-13.19Zm-.27,18.08c-2.49,0-3.62-2.41-3.62-4.64,0-1.11.27-4.72,3.76-4.72s3.62,4.12,3.62,4.59c0,2.81-1.53,4.77-3.72,4.77Z"/><path class="cls-1" d="M200.62,33.92a1.5,1.5,0,0,1-1.41-1l-3.38-9.49-.6-1.77c-.22.64-.43,1.25-.64,1.82L191,33a1.49,1.49,0,0,1-1.4,1H186a1.5,1.5,0,0,1-1.42-1L177.88,13a1.5,1.5,0,0,1,1.42-2h4.11a1.49,1.49,0,0,1,1.44,1.07l3,10.07.37,1.37c.1-.31.47-1.38.47-1.38L192.27,12a1.49,1.49,0,0,1,1.41-1h3.38a1.5,1.5,0,0,1,1.42,1L201.9,22c.18.5.35,1,.51,1.49.14-.48.29-.95.43-1.41l3.15-10a1.5,1.5,0,0,1,1.43-1h4a1.49,1.49,0,0,1,1.22.63,1.52,1.52,0,0,1,.19,1.37l-7.12,19.88a1.51,1.51,0,0,1-1.42,1Z"/><path class="cls-2" d="M211.4,12.54h0m0,0-7.13,19.88h-3.65l-3.37-9.49a64.5,64.5,0,0,1-2-6.57h-.09a54.93,54.93,0,0,1-2,6.61l-3.56,9.45H186L179.3,12.54h4.11l3,10.06c.59,2.22,1.19,4.31,1.6,6.37h.13c.51-2,1.24-4.15,2-6.33l3.6-10.1h3.38l3.43,9.94c.82,2.34,1.46,4.48,2,6.49h.14a55.77,55.77,0,0,1,1.68-6.45l3.15-10h4m0-3h-4a3,3,0,0,0-2.86,2.09l-2.21,7-2.45-7.1a3,3,0,0,0-2.84-2h-3.38a3,3,0,0,0-2.82,2l-2.53,7.08-2-6.92a3,3,0,0,0-2.88-2.15H179.3a3,3,0,0,0-2.84,4l6.67,19.88A3,3,0,0,0,186,35.42h3.65a3,3,0,0,0,2.81-1.94l2.77-7.35,2.6,7.29a3,3,0,0,0,2.82,2h3.65a3,3,0,0,0,2.83-2l7.08-19.76a3,3,0,0,0,.22-1.13,3,3,0,0,0-3-3Zm0,6Z"/><path class="cls-1" d="M230.21,33.92a1.5,1.5,0,0,1-1.5-1.5V21c0-4.42-2.72-4.42-3.62-4.42a4.25,4.25,0,0,0-4,2.71,3.37,3.37,0,0,0-.19,1.17v12a1.5,1.5,0,0,1-1.5,1.5h-4a1.5,1.5,0,0,1-1.5-1.5V17.92c0-2.19-.06-3.77-.18-5.26a1.46,1.46,0,0,1,.39-1.14,1.48,1.48,0,0,1,1.1-.48h3.56a1.5,1.5,0,0,1,1.5,1.38,10.52,10.52,0,0,1,6.13-1.84c4.29,0,9.3,2.61,9.3,10V32.42a1.5,1.5,0,0,1-1.5,1.5Z"/><path class="cls-2" d="M226.42,12.08c3.05,0,7.8,1.65,7.8,8.47V32.42h-4V21c0-3.21-1.33-5.92-5.12-5.92a5.73,5.73,0,0,0-5.38,3.7,4.7,4.7,0,0,0-.28,1.68v12h-4V17.92c0-2.1,0-3.74-.19-5.38h3.56l.23,3.24h.09a8.38,8.38,0,0,1,7.31-3.7m0-3a12.28,12.28,0,0,0-5.57,1.27,3,3,0,0,0-2.06-.81h-3.56a3,3,0,0,0-3,3.25c.12,1.44.18,3,.18,5.13v14.5a3,3,0,0,0,3,3h4a3,3,0,0,0,3-3v-12a2.47,2.47,0,0,1,.07-.59.21.21,0,0,1,0-.07A2.73,2.73,0,0,1,225.09,18c.89,0,2.12,0,2.12,2.92V32.42a3,3,0,0,0,3,3h4a3,3,0,0,0,3-3V20.55c0-7.92-5.43-11.47-10.8-11.47Z"/><rect class="cls-1" x="239.25" y="1.75" width="7.02" height="32.17" rx="1.5"/><path class="cls-2" d="M244.77,3.25V32.42h-4V3.25h4m0-3h-4a3,3,0,0,0-3,3V32.42a3,3,0,0,0,3,3h4a3,3,0,0,0,3-3V3.25a3,3,0,0,0-3-3Z"/><path class="cls-1" d="M260.43,34.37c-7,0-12.09-4.93-12.09-11.73,0-7.1,5.12-12.06,12.45-12.06,7.14,0,12.14,4.81,12.14,11.69,0,8.32-6.46,12.1-12.46,12.1Zm.22-18.07c-3.88,0-5.25,3.35-5.25,6.22,0,3.56,2.15,6.14,5.12,6.14s5.25-2.64,5.25-6.27C265.77,20.13,264.69,16.3,260.65,16.3Z"/><path class="cls-2" d="M260.79,12.08c6.34,0,10.64,4.15,10.64,10.19,0,7.4-5.71,10.6-11,10.6h0c-5.94,0-10.59-3.94-10.59-10.23,0-6.65,4.88-10.56,11-10.56m-.27,18.08h0c3.84,0,6.71-3.25,6.71-7.77,0-3.36-1.87-7.59-6.62-7.59s-6.75,3.94-6.75,7.72c0,4.35,2.74,7.64,6.62,7.64m.27-21.08c-8.22,0-14,5.58-14,13.56,0,7.67,5.71,13.23,13.59,13.23,6.76,0,14-4.25,14-13.6,0-7.76-5.61-13.19-13.64-13.19Zm-.27,18.08c-2.49,0-3.62-2.41-3.62-4.64,0-1.11.27-4.72,3.75-4.72s3.62,4.12,3.62,4.59c0,2.81-1.52,4.77-3.71,4.77Z"/><path class="cls-1" d="M281.52,34.37c-5.42,0-8.26-3.63-8.26-7.21,0-2.58,1.32-8.44,13.18-8.87-.32-1.41-1.36-2-3.33-2a10.34,10.34,0,0,0-5.1,1.26,1.46,1.46,0,0,1-.78.22,1.36,1.36,0,0,1-.49-.08,1.5,1.5,0,0,1-.92-.89l-.91-2.42a1.51,1.51,0,0,1,.67-1.84,17.14,17.14,0,0,1,8-1.92c6.41,0,9.94,3.43,9.94,9.64v7.43a28,28,0,0,0,.3,4.52,1.49,1.49,0,0,1-1.48,1.75h-3.61a1.51,1.51,0,0,1-1.46-1.16A10.8,10.8,0,0,1,281.52,34.37Zm5.12-10.59c-3.08.09-6.36.71-6.36,3,0,1.3.75,1.95,2.24,1.95a4.08,4.08,0,0,0,4-2.36,2,2,0,0,0,.09-.62Z"/><path class="cls-2" d="M283.62,12.08c6.8,0,8.44,4.15,8.44,8.14v7.43a29.92,29.92,0,0,0,.32,4.77h-3.61l-.36-2.51h-.14a8.48,8.48,0,0,1-6.75,3c-4.48,0-6.76-2.83-6.76-5.71,0-4.77,4.67-7.39,13.09-7.39H288v-.41c0-1.64-.49-4.61-4.93-4.61H283a11.55,11.55,0,0,0-5.79,1.47l-.92-2.42a15.53,15.53,0,0,1,7.31-1.73m-1.1,18.12A5.57,5.57,0,0,0,288,26.87a3.3,3.3,0,0,0,.19-1.15V22.27h-.65c-4.21,0-8.71.81-8.71,4.48,0,2.38,1.73,3.45,3.74,3.45m1.1-21.12a18.5,18.5,0,0,0-8.78,2.11,3,3,0,0,0-1.33,3.68l.91,2.42a3,3,0,0,0,1.83,1.78l.27.08a9,9,0,0,0-4.76,8c0,4.33,3.35,8.71,9.76,8.71a12.62,12.62,0,0,0,5.32-1.16,3,3,0,0,0,1.93.71h3.61a3,3,0,0,0,3-3.5,27.36,27.36,0,0,1-.28-4.27V20.22c0-7-4.28-11.14-11.44-11.14Zm-1.81,18a1.3,1.3,0,0,1,0-.31c0-.64,1.32-1.15,3.36-1.37v.34c0,.07,0,.11,0,.13a2.59,2.59,0,0,1-2.61,1.35,1.4,1.4,0,0,1-.71-.14Z"/><path class="cls-1" d="M306.4,34.37c-6.38,0-11-4.88-11-11.61a12.22,12.22,0,0,1,3.39-8.91,11.17,11.17,0,0,1,8-3.27,10.93,10.93,0,0,1,5.26,1.24V3.25a1.5,1.5,0,0,1,1.5-1.5h4a1.5,1.5,0,0,1,1.5,1.5v24c0,2,.06,3.86.17,5a1.47,1.47,0,0,1-.38,1.16,1.51,1.51,0,0,1-1.11.49h-3.6a1.49,1.49,0,0,1-1.5-1.41A10.84,10.84,0,0,1,306.4,34.37Zm1.18-17.95c-3.78,0-5.12,3.31-5.12,6.14s1.32,5.89,5,5.89a4.47,4.47,0,0,0,4.44-3.2,4.29,4.29,0,0,0,.13-1.17V20.63a4.14,4.14,0,0,0-.13-1.15A4.28,4.28,0,0,0,307.58,16.42Z"/><path class="cls-2" d="M317.58,3.25v24c0,1.77.05,3.78.18,5.14h-3.6L314,29h-.09c-1.23,2.22-3.88,3.9-7.48,3.9-5.35,0-9.5-4.07-9.5-10.11,0-6.65,4.57-10.68,9.91-10.68,3.42,0,5.7,1.44,6.66,3h.09V3.25h4M307.49,30a6,6,0,0,0,5.89-4.31,5.57,5.57,0,0,0,.18-1.56V20.63a5.94,5.94,0,0,0-.18-1.56,5.8,5.8,0,0,0-5.8-4.15c-4.15,0-6.62,3.29-6.62,7.64,0,4.07,2.24,7.39,6.53,7.39M317.58.25h-4a3,3,0,0,0-3,3V9.6a13.33,13.33,0,0,0-3.75-.52,12.72,12.72,0,0,0-9.09,3.71,13.88,13.88,0,0,0-3.82,10c0,7.45,5.37,13.08,12.5,13.08a12.76,12.76,0,0,0,5.69-1.28,3,3,0,0,0,2.07.83h3.6a3,3,0,0,0,2.22-1,3,3,0,0,0,.77-2.31c-.11-1.08-.17-2.84-.17-4.84v-24a3,3,0,0,0-3-3ZM307.49,27c-3.18,0-3.53-3.07-3.53-4.39,0-1.09.26-4.64,3.62-4.64a2.82,2.82,0,0,1,2.9,1.91v.05a3.36,3.36,0,0,1,.07.75v3.45a2.87,2.87,0,0,1-.07.75,3,3,0,0,1-3,2.12Z"/><path class="cls-1" d="M342.91,34.37c-7,0-12.09-4.93-12.09-11.73,0-7.1,5.13-12.06,12.46-12.06,7.14,0,12.14,4.81,12.14,11.69,0,8.32-6.46,12.1-12.46,12.1Zm.23-18.07c-3.88,0-5.25,3.35-5.25,6.22,0,3.56,2.15,6.14,5.12,6.14s5.25-2.64,5.25-6.27C348.26,20.13,347.18,16.3,343.14,16.3Z"/><path class="cls-2" d="M343.28,12.08c6.35,0,10.64,4.15,10.64,10.19,0,7.4-5.71,10.6-11,10.6h0c-5.93,0-10.59-3.94-10.59-10.23,0-6.65,4.89-10.56,11-10.56M343,30.16h0c3.84,0,6.71-3.25,6.71-7.77,0-3.36-1.87-7.59-6.62-7.59s-6.75,3.94-6.75,7.72c0,4.35,2.74,7.64,6.62,7.64m.27-21.08c-8.09,0-14,5.71-14,13.56,0,7.67,5.72,13.23,13.59,13.23,6.77,0,14-4.25,14-13.6,0-7.76-5.61-13.19-13.64-13.19ZM343,27.16c-2.49,0-3.62-2.41-3.62-4.64,0-1.11.27-4.72,3.75-4.72s3.62,4.12,3.62,4.59c0,2.81-1.52,4.77-3.71,4.77Z"/><path class="cls-1" d="M373.77,33.92a1.5,1.5,0,0,1-1.5-1.5V21c0-4.42-2.62-4.42-3.61-4.42a4.28,4.28,0,0,0-4,2.71,3.67,3.67,0,0,0-.18,1.17v12a1.5,1.5,0,0,1-1.5,1.5h-4a1.5,1.5,0,0,1-1.5-1.5V17.92c0-2.18-.06-3.76-.18-5.26a1.46,1.46,0,0,1,.39-1.14,1.48,1.48,0,0,1,1.1-.48h3.56a1.5,1.5,0,0,1,1.5,1.38A10.52,10.52,0,0,1,370,10.58c4.29,0,9.3,2.61,9.3,10V32.42a1.5,1.5,0,0,1-1.5,1.5Z"/><path class="cls-2" d="M370,12.08c3.05,0,7.8,1.65,7.8,8.47V32.42h-4V21c0-3.21-1.32-5.92-5.11-5.92a5.76,5.76,0,0,0-5.39,3.7,4.93,4.93,0,0,0-.27,1.68v12h-4V17.92c0-2.1-.05-3.74-.19-5.38h3.56l.23,3.24h.09a8.38,8.38,0,0,1,7.31-3.7m0-3a12.28,12.28,0,0,0-5.57,1.27,3,3,0,0,0-2.06-.81H358.8a3,3,0,0,0-3,3.24c.12,1.46.18,3,.18,5.14v14.5a3,3,0,0,0,3,3h4a3,3,0,0,0,3-3v-12a2.47,2.47,0,0,1,.07-.59l0-.07A2.75,2.75,0,0,1,368.66,18c.89,0,2.11,0,2.11,2.92V32.42a3,3,0,0,0,3,3h4a3,3,0,0,0,3-3V20.55c0-7.92-5.43-11.47-10.8-11.47Z"/><path class="cls-1" d="M400.8,34.37a7.57,7.57,0,0,1-5.39-1.95c-1.35-1.37-2-3.42-2-6.29V16.79h-1.92a1.5,1.5,0,0,1-1.5-1.5V12.54a1.5,1.5,0,0,1,1.5-1.5h1.92V8.88a1.5,1.5,0,0,1,1.09-1.44l3.93-1.11a1.4,1.4,0,0,1,.41-.06,1.52,1.52,0,0,1,1.5,1.5V11h4.25a1.5,1.5,0,0,1,1.5,1.5v2.75a1.5,1.5,0,0,1-1.5,1.5h-4.25V26c0,2.36.73,2.36,1.51,2.36a6.66,6.66,0,0,0,1.93-.19,1.37,1.37,0,0,1,.4-.05,1.49,1.49,0,0,1,1.5,1.4l.18,2.75a1.51,1.51,0,0,1-1.05,1.53A13.47,13.47,0,0,1,400.8,34.37Z"/><path class="cls-2" d="M398.84,7.77v4.77h5.75v2.75h-5.75V26c0,2.46.77,3.86,3,3.86a8.53,8.53,0,0,0,2.33-.24l.18,2.75a12.28,12.28,0,0,1-3.56.49,6.07,6.07,0,0,1-4.34-1.52c-1.09-1.11-1.55-2.88-1.55-5.22V15.29h-3.42V12.54h3.42V8.88l3.93-1.11m0-3a3.24,3.24,0,0,0-.82.11L394.1,6a3,3,0,0,0-2.19,2.89v.66h-.42a3,3,0,0,0-3,3v2.75a3,3,0,0,0,3,3h.42v7.84c0,3.29.79,5.68,2.42,7.33a9.06,9.06,0,0,0,6.47,2.41,15.33,15.33,0,0,0,4.47-.63,3,3,0,0,0,2.08-3.06l-.18-2.75a3,3,0,0,0-1.25-2.25,3,3,0,0,0-1.74-.55,3.08,3.08,0,0,0-.8.1,5.23,5.23,0,0,1-1.48.14,5.19,5.19,0,0,1-.06-.86V18.29h2.75a3,3,0,0,0,3-3V12.54a3,3,0,0,0-3-3h-2.75V7.77a3,3,0,0,0-3-3Z"/><path class="cls-1" d="M423.9,33.92a1.5,1.5,0,0,1-1.5-1.5V21c0-4.42-2.63-4.42-3.61-4.42a4.29,4.29,0,0,0-4,2.67,2.55,2.55,0,0,0-.18,1.17v12a1.5,1.5,0,0,1-1.5,1.5h-4a1.5,1.5,0,0,1-1.5-1.5V3.25a1.5,1.5,0,0,1,1.5-1.5h4a1.5,1.5,0,0,1,1.5,1.5v9c.26-.15.52-.3.79-.43a10.12,10.12,0,0,1,4.79-1.19c4.25,0,9.22,2.62,9.22,10V32.42a1.5,1.5,0,0,1-1.5,1.5Z"/><path class="cls-2" d="M413.12,3.25V15.66h.1a6.85,6.85,0,0,1,2.88-2.55,8.51,8.51,0,0,1,4.1-1c3,0,7.72,1.65,7.72,8.51V32.42h-4V21c0-3.25-1.32-5.92-5.11-5.92a5.79,5.79,0,0,0-5.39,3.62,3.91,3.91,0,0,0-.28,1.72v12h-4V3.25h4m0-3h-4a3,3,0,0,0-3,3V32.42a3,3,0,0,0,3,3h4a3,3,0,0,0,3-3v-12a3.13,3.13,0,0,1,0-.52l0-.1a2.79,2.79,0,0,1,2.6-1.72c.94,0,2.11,0,2.11,2.92V32.42a3,3,0,0,0,3,3h4a3,3,0,0,0,3-3V20.59c0-7.95-5.39-11.51-10.72-11.51a11.65,11.65,0,0,0-4.08.73V3.25a3,3,0,0,0-3-3Z"/><path class="cls-1" d="M443.71,34.33c-7.39,0-12.36-4.63-12.36-11.52,0-7.22,4.89-12.27,11.9-12.27,7.31,0,10.59,5.46,10.59,10.87a10,10,0,0,1-.17,2.05,1.51,1.51,0,0,1-1.47,1.17l-13.79,0c.78,3.35,3.9,3.9,5.85,3.9a15.27,15.27,0,0,0,5.6-.9,1.54,1.54,0,0,1,.52-.09,1.48,1.48,0,0,1,.68.16,1.5,1.5,0,0,1,.76.93l.73,2.54a1.51,1.51,0,0,1-.88,1.81A21.19,21.19,0,0,1,443.71,34.33ZM446.79,19a4,4,0,0,0-1-1.86,3.9,3.9,0,0,0-2.88-1A4.33,4.33,0,0,0,438.72,19Z"/><path class="cls-2" d="M443.25,12c7.22,0,9.09,5.71,9.09,9.37a8.38,8.38,0,0,1-.14,1.72l-15.47,0c.09,4.89,3.51,6.91,7.53,6.91a16.84,16.84,0,0,0,6.12-1l.73,2.55a19.88,19.88,0,0,1-7.4,1.27c-6.76,0-10.86-4.07-10.86-10s4-10.77,10.4-10.77m-6.48,8.47h11.69c0-2.26-1-5.88-5.52-5.88-4.11,0-5.85,3.37-6.17,5.88M443.25,9c-7.76,0-13.4,5.79-13.4,13.77,0,7.79,5.57,13,13.86,13a22.77,22.77,0,0,0,8.53-1.49A3,3,0,0,0,454,30.73l-.73-2.55a3,3,0,0,0-1.52-1.84,2.75,2.75,0,0,0-.51-.21h1a3,3,0,0,0,2.93-2.34,11,11,0,0,0,.21-2.38C455.34,15.25,451.6,9,443.25,9Zm1,18a5.16,5.16,0,0,1-3.26-.89l8.54,0-.19.06a13.65,13.65,0,0,1-5.09.81Z"/></g></g></svg>