<svg xmlns="http://www.w3.org/2000/svg" viewBox="0 0 448.49 109.04"><defs><style>.cls-1{fill:#fff;}</style></defs><title>Ресурс 15</title><g id="Слой_2" data-name="Слой 2"><g id="Слой_1-2" data-name="Слой 1"><path class="cls-1" d="M360.9,83.55a13.65,13.65,0,0,1-5.63-1.14,10.61,10.61,0,0,1-4.28-3.5h-.34a42.44,42.44,0,0,1,.34,5.24v13h-4.78V51.41h3.89l.66,4.32H351a11.17,11.17,0,0,1,4.3-3.75,13.14,13.14,0,0,1,5.61-1.15q6.28,0,9.69,4.29t3.42,12c0,5.19-1.16,9.21-3.47,12.09A11.7,11.7,0,0,1,360.9,83.55Zm-.69-28.66c-3.23,0-5.56.9-7,2.68S351,62.2,351,66.1v1.06q0,6.66,2.22,9.52t7.12,2.87a7.43,7.43,0,0,0,6.41-3.31q2.31-3.31,2.31-9.14t-2.31-9A7.63,7.63,0,0,0,360.21,54.89Z"/><path class="cls-1" d="M385.08,83H380.3V38.16h4.78Z"/><path class="cls-1" d="M412.56,83l-.95-4.49h-.23a13.18,13.18,0,0,1-4.71,4,14.36,14.36,0,0,1-5.86,1,10.57,10.57,0,0,1-7.36-2.42,8.84,8.84,0,0,1-2.66-6.88q0-9.57,15.29-10l5.36-.17v-2q0-3.71-1.6-5.48c-1.06-1.18-2.77-1.77-5.11-1.77a20.85,20.85,0,0,0-8.93,2.41l-1.47-3.65A22.91,22.91,0,0,1,405,50.89c3.76,0,6.55.83,8.36,2.51s2.72,4.34,2.72,8V83Zm-10.8-3.37a9.74,9.74,0,0,0,7-2.44,9.09,9.09,0,0,0,2.54-6.86V67.45l-4.78.2q-5.7.21-8.22,1.77a5.36,5.36,0,0,0-2.52,4.89,4.91,4.91,0,0,0,1.57,3.94A6.53,6.53,0,0,0,401.76,79.6Z"/><path class="cls-1" d="M418.88,51.41H424l6.92,18a68.44,68.44,0,0,1,2.82,8.9H434q.38-1.47,1.57-5t7.82-21.87h5.13L434.92,87.35q-2,5.33-4.71,7.56a10,10,0,0,1-6.61,2.23,19,19,0,0,1-4.32-.49V92.82a16.72,16.72,0,0,0,3.54.35q4.94,0,7-5.53l1.76-4.49Z"/><path class="cls-1" d="M272.34,54.34A11.14,11.14,0,0,1,277,63.26c0,4.88-2.77,7.19-5.54,9.37-.86.86-1.85,1.78-1.85,3.24a3.63,3.63,0,0,0,1.72,2.84l2.38,1.84c2.9,2.44,5.54,4.69,5.54,9.25,0,6.2-6,12.47-17.36,12.47-9.58,0-14.2-4.55-14.2-9.44,0-2.38,1.19-5.74,5.09-8,4.09-2.51,9.64-2.84,12.61-3a6.91,6.91,0,0,1-2-4.49,6.12,6.12,0,0,1,.66-2.58c-.72.07-1.45.14-2.11.14-7,0-11-5.22-11-10.37a11.87,11.87,0,0,1,4.23-8.84C259,52.49,263.49,52,267.06,52h13.6l-4.23,2.38Zm-4.69,29.32a10.14,10.14,0,0,0-1.52-.07,26.23,26.23,0,0,0-6.93,1.06c-1.45.52-5.68,2.11-5.68,6.8s4.56,8.06,11.62,8.06c6.34,0,9.71-3.05,9.71-7.14C274.85,89,272.67,87.22,267.65,83.66Zm1.92-12.55a6.69,6.69,0,0,0,1.64-4.82c0-4.75-2.83-12.15-8.31-12.15a6.19,6.19,0,0,0-4.63,2.18,7.65,7.65,0,0,0-1.45,4.89c0,4.42,2.58,11.75,8.26,11.75A6.75,6.75,0,0,0,269.57,71.11Z"/><path class="cls-1" d="M230.77,82.6A15.55,15.55,0,0,1,214.69,67c0-8.63,7.05-16,17.08-16a15.41,15.41,0,0,1,15.75,15.55C247.52,74.36,241.52,82.6,230.77,82.6ZM239,77.26a11.89,11.89,0,0,0,2-7.32c0-5.8-2.77-16.87-10.94-16.87a9.21,9.21,0,0,0-5.93,2.24c-2.57,2.31-3,5.21-3,8,0,6.52,3.23,17.26,11.21,17.26A8.41,8.41,0,0,0,239,77.26Z"/><path class="cls-1" d="M195.05,82.6A15.56,15.56,0,0,1,179,67C179,58.41,186,51,196,51a15.4,15.4,0,0,1,15.75,15.55C211.79,74.36,205.79,82.6,195.05,82.6Zm8.24-5.34a12,12,0,0,0,2-7.32c0-5.8-2.77-16.87-11-16.87a9.21,9.21,0,0,0-5.93,2.24c-2.57,2.31-3,5.21-3,8,0,6.52,3.23,17.26,11.21,17.26A8.43,8.43,0,0,0,203.29,77.26Z"/><path class="cls-1" d="M173.93,81.57l-9.48,2.18a70.05,70.05,0,0,1-10.93,1.13c-18.3,0-25.25-13.46-25.25-24,0-12.86,9.87-24.78,26.77-24.78a37.92,37.92,0,0,1,10.14,1.39,25.75,25.75,0,0,1,8.75,4.11l-5.51,5.23-2.31.53,1.65-2.65c-2.25-2.19-6.36-6.23-14.18-6.23-10.47,0-18.36,8-18.36,19.55,0,12.46,9,24.19,23.46,24.19a19.68,19.68,0,0,0,8.42-1.66V69.9l-10,.53,5.3-2.85h14.05l-1.72,1.66a1.56,1.56,0,0,0-.66,1.05c-.07.6-.13,2.53-.13,3.19Z"/><path class="cls-1" d="M293.28,79.66c-2.18-.2-2.64-.6-2.64-3.18V39l0-.43c.27-2.32.93-2.72,3-3.91h-9.48l-5,2.39h5.07V77.94c0,1.32-.26,1.52-1.79,3.51h11.73L296.67,80C295.54,79.85,294.41,79.79,293.28,79.66Z"/><path class="cls-1" d="M320.25,80.27c-.72.39-1.44.86-2.17,1.18a15.26,15.26,0,0,1-6.39,1.25,14.05,14.05,0,0,1-8.75-2.56c-4.67-3.3-6.71-9-6.71-13.89,0-10.2,8.29-15.2,15.07-15.2a12.79,12.79,0,0,1,6.78,1.84,10.93,10.93,0,0,1,4.61,6.51l-15.47,6.26-5.07.39c1.65,8.36,7.31,13.23,13.56,13.23a17.09,17.09,0,0,0,8-2.3Zm-6.18-19.62c1.25-.46,1.9-.85,1.9-1.77,0-2.63-3-5.66-6.51-5.66-2.64,0-7.57,2-7.57,9.14,0,1.12.13,2.31.2,3.5Z"/><path class="cls-1" d="M326.6,51.5v4.34h-.52V51.5h-1.44v-.45H328v.45Z"/><path class="cls-1" d="M332.52,55.84V51.46h0l-1.34,4.38h-.41l-1.35-4.38h0v4.38h-.48V51.05h.83L331,54.92h0l1.21-3.87H333v4.79Z"/><path class="cls-1" d="M141.43,23.2h-3.29a22.59,22.59,0,0,0-.94-3.85h-4.75a19.54,19.54,0,0,0-1,3.85h-3.1q0-.4,2.4-6.58a52.9,52.9,0,0,0,2.41-6.82h3.89a56.36,56.36,0,0,0,2.17,6.72A59.39,59.39,0,0,1,141.43,23.2Zm-4.76-5.81a58,58,0,0,1-1.75-5.74h-.17c0,.26-.61,2.18-1.82,5.74Z"/><path class="cls-1" d="M154.7,23.2h-2.54c0-.28-.95-1.76-2.83-4.45S146.23,14,146,12.93h-.16A36.43,36.43,0,0,1,146,17c0,1.69.05,3.76.15,6.19h-2.53q.15-3.18.15-7t-.15-6.39h3.05q0,.55,2.54,4.36a25.39,25.39,0,0,1,3.11,5.48h.16a37.53,37.53,0,0,1-.25-4.12c0-1.85-.05-3.76-.14-5.72h2.57q-.15,2.55-.15,6.39T154.7,23.2Z"/><path class="cls-1" d="M169.61,16a7.56,7.56,0,0,1-1.87,5.1,6.54,6.54,0,0,1-5.25,2.19c-1,0-2.41,0-4.2-.13q.14-3.11.14-7,0-3.74-.14-6.39h1.8l1.32,0,1.14,0q3.72,0,5.39,1.85A6.4,6.4,0,0,1,169.61,16Zm-2.81.44a5,5,0,0,0-1.15-3.33,4.37,4.37,0,0,0-3.52-1.35,11.07,11.07,0,0,0-1.21.09c.07,1.37.1,2.81.1,4.3s0,3.27.1,4.88a6.85,6.85,0,0,0,1.34.14,3.88,3.88,0,0,0,3.28-1.38A5.28,5.28,0,0,0,166.8,16.48Z"/><path class="cls-1" d="M183.37,23.2h-3.05a20.77,20.77,0,0,0-1.83-4.5,2.4,2.4,0,0,0-2.06-.85h-1.14q0,2.64.09,5.34h-2.86q.14-3.11.13-7,0-3.74-.13-6.39h1.78l1.29,0,1.82,0q4.72,0,4.72,3.23a3.62,3.62,0,0,1-2.69,3.57v.16a3.2,3.2,0,0,1,1.82,1.62A36.37,36.37,0,0,1,183.37,23.2Zm-3.86-9.47q0-2-2.64-2a8.82,8.82,0,0,0-1.71.14c.08,1.06.12,2.45.12,4.16l1,0Q179.51,16,179.51,13.73Z"/><path class="cls-1" d="M198.12,16.26a7.37,7.37,0,0,1-1.94,5.23,6.25,6.25,0,0,1-4.78,2.08,6,6,0,0,1-4.55-1.91A6.72,6.72,0,0,1,185,16.81,7.41,7.41,0,0,1,187,11.57a6.31,6.31,0,0,1,4.79-2.08,6.08,6.08,0,0,1,4.55,1.91A6.73,6.73,0,0,1,198.12,16.26Zm-2.84.29a5.31,5.31,0,0,0-1.1-3.48,3.38,3.38,0,0,0-2.72-1.34,3.14,3.14,0,0,0-2.55,1.35,5.35,5.35,0,0,0-1,3.4A5.31,5.31,0,0,0,189,20a3.4,3.4,0,0,0,2.72,1.35A3.12,3.12,0,0,0,194.23,20,5.37,5.37,0,0,0,195.28,16.55Z"/><path class="cls-1" d="M203.94,23.2H201q.14-3.18.14-7T201,9.8h2.92q-.13,2.59-.14,6.39T203.94,23.2Z"/><path class="cls-1" d="M218.85,16a7.56,7.56,0,0,1-1.87,5.1,6.54,6.54,0,0,1-5.25,2.19c-1,0-2.41,0-4.2-.13q.14-3.11.14-7,0-3.74-.14-6.39h1.8l1.32,0,1.14,0c2.48,0,4.27.62,5.39,1.85A6.44,6.44,0,0,1,218.85,16Zm-2.81.44a5,5,0,0,0-1.15-3.33,4.37,4.37,0,0,0-3.52-1.35,11.07,11.07,0,0,0-1.21.09c.06,1.37.1,2.81.1,4.3s0,3.27.1,4.88a6.78,6.78,0,0,0,1.34.14A3.89,3.89,0,0,0,215,19.83,5.28,5.28,0,0,0,216,16.48Z"/><path class="cls-1" d="M238.64,23.2h-3.29a22.59,22.59,0,0,0-.94-3.85h-4.76a20,20,0,0,0-1,3.85h-3.1q0-.4,2.4-6.58A52.9,52.9,0,0,0,230.4,9.8h3.89a56.36,56.36,0,0,0,2.17,6.72A59.39,59.39,0,0,1,238.64,23.2Zm-4.76-5.81a60,60,0,0,1-1.76-5.74H232c0,.26-.61,2.18-1.82,5.74Z"/><path class="cls-1" d="M250.64,13.31a4,4,0,0,1-1.82,3.63,8.1,8.1,0,0,1-4.49,1.18l-.69,0q0,1.93.12,5.1h-2.89q.13-3,.13-7,0-3.71-.13-6.39h1.79l1.46,0,1.87,0a5.87,5.87,0,0,1,3.3.89A3,3,0,0,1,250.64,13.31Zm-2.65.57c0-1.47-1-2.2-2.92-2.2a8.54,8.54,0,0,0-1.55.15c.08,1.3.11,2.76.11,4.4a5.47,5.47,0,0,0,.6,0C246.74,16.26,248,15.46,248,13.88Z"/><path class="cls-1" d="M263,13.31a4,4,0,0,1-1.82,3.63,8.06,8.06,0,0,1-4.48,1.18l-.69,0c0,1.29,0,3,.11,5.1h-2.89q.14-3,.13-7,0-3.71-.13-6.39H255l1.46,0,1.87,0a5.9,5.9,0,0,1,3.31.89A3,3,0,0,1,263,13.31Zm-2.65.57c0-1.47-1-2.2-2.92-2.2a8.63,8.63,0,0,0-1.55.15c.08,1.3.12,2.76.12,4.4a5.15,5.15,0,0,0,.59,0C259.08,16.26,260.33,15.46,260.33,13.88Z"/><path class="cls-1" d="M283.16,16.26a7.37,7.37,0,0,1-1.93,5.23,6.27,6.27,0,0,1-4.79,2.08,6,6,0,0,1-4.54-1.91,6.69,6.69,0,0,1-1.84-4.85A7.41,7.41,0,0,1,272,11.57a6.29,6.29,0,0,1,4.78-2.08,6.06,6.06,0,0,1,4.55,1.91A6.73,6.73,0,0,1,283.16,16.26Zm-2.84.29a5.26,5.26,0,0,0-1.1-3.48,3.36,3.36,0,0,0-2.71-1.34A3.14,3.14,0,0,0,274,13.08a5.35,5.35,0,0,0-1.05,3.4A5.26,5.26,0,0,0,274,20a3.38,3.38,0,0,0,2.71,1.35A3.12,3.12,0,0,0,279.27,20,5.37,5.37,0,0,0,280.32,16.55Z"/><path class="cls-1" d="M297.11,23.2h-2.54q0-.42-2.83-4.45-3-4.26-3.37-5.82h-.17a36.61,36.61,0,0,1,.26,4.08c0,1.69.05,3.76.14,6.19h-2.53q.15-3.18.15-7t-.15-6.39h3.06c0,.37.84,1.82,2.54,4.36a25.85,25.85,0,0,1,3.11,5.48h.15a40.19,40.19,0,0,1-.25-4.12c0-1.85,0-3.76-.14-5.72h2.57q-.14,2.55-.14,6.39T297.11,23.2Z"/><path class="cls-1" d="M1.86,1.8A8.62,8.62,0,0,0,0,7.63v93.78a9.19,9.19,0,0,0,1.36,5.15l52-52.63Z"/><path class="cls-1" d="M55.24,52.05,71.3,35.8,10.78,1.41C8.25,0,5.94-.32,4.11.32Z"/><path class="cls-1" d="M55.24,55.8,3.3,108.35c1.94,1.07,4.57.93,7.48-.72L72.05,72.81Z"/><path class="cls-1" d="M93.47,48.4,73.68,37.15,57.09,53.93,74.43,71.46l19-10.82C99.4,57.27,99.4,51.76,93.47,48.4Z"/></g></g></svg>