<svg xmlns="http://www.w3.org/2000/svg" viewBox="0 0 454.49 115.04"><defs><style>.cls-1{fill:#fff;}.cls-2{fill:#000;}</style></defs><title>Ресурс 17</title><g id="Слой_2" data-name="Слой 2"><g id="Слой_1-2" data-name="Слой 1"><path class="cls-1" d="M349.21,101.64a1.5,1.5,0,0,1-1.5-1.5V54.41a1.5,1.5,0,0,1,1.5-1.5h3.89a1.5,1.5,0,0,1,1.48,1.27l.21,1.37a11.57,11.57,0,0,1,2.86-1.92,14.55,14.55,0,0,1,6.25-1.3c4.65,0,8.31,1.64,10.87,4.86s3.74,7.49,3.74,13-1.28,9.89-3.8,13a13.21,13.21,0,0,1-10.81,4.86,15.2,15.2,0,0,1-6.24-1.27,12,12,0,0,1-2.2-1.28q0,.84,0,1.65v13a1.5,1.5,0,0,1-1.5,1.5Zm14-42.25c-2.77,0-4.68.7-5.83,2.12s-1.85,4.07-1.89,7.6v1c0,4.08.64,7,1.91,8.6s3.13,2.29,5.93,2.29a5.94,5.94,0,0,0,5.18-2.68c1.36-1.93,2-4.72,2-8.27s-.68-6.34-2-8.17A6.16,6.16,0,0,0,363.21,59.39Z"/><path class="cls-2" d="M363.9,53.83q6.28,0,9.69,4.29t3.42,12c0,5.19-1.16,9.21-3.47,12.09a11.7,11.7,0,0,1-9.64,4.3,13.65,13.65,0,0,1-5.63-1.14,10.61,10.61,0,0,1-4.28-3.5h-.34a42.44,42.44,0,0,1,.34,5.24v13h-4.77V54.41h3.88l.66,4.32H354a11.17,11.17,0,0,1,4.3-3.75,13.14,13.14,0,0,1,5.61-1.15m-.57,28.72a7.43,7.43,0,0,0,6.41-3.31q2.31-3.31,2.31-9.14t-2.31-9a7.63,7.63,0,0,0-6.53-3.16c-3.23,0-5.56.9-7,2.68S354,65.2,354,69.1v1.06q0,6.66,2.22,9.52t7.12,2.87m.57-31.72A16.11,16.11,0,0,0,357,52.27c-.44.21-.86.44-1.28.69a3,3,0,0,0-2.63-1.55h-3.88a3,3,0,0,0-3,3v45.73a3,3,0,0,0,3,3H354a3,3,0,0,0,3-3v-12l.06,0a16.65,16.65,0,0,0,6.85,1.4,14.6,14.6,0,0,0,12-5.42c2.75-3.41,4.14-8.11,4.14-14s-1.37-10.51-4.07-13.9c-2.86-3.6-6.91-5.43-12-5.43Zm-.57,28.72c-3.43,0-4.42-1.28-4.75-1.7-.72-.94-1.59-3-1.59-7.69V69.1c0-3.94.87-5.79,1.56-6.65.83-1,2.4-1.56,4.66-1.56a4.65,4.65,0,0,1,4.11,1.93c1.15,1.57,1.73,4,1.73,7.28s-.59,5.73-1.77,7.42a4.43,4.43,0,0,1-3.95,2Z"/><rect class="cls-1" x="381.8" y="39.66" width="7.78" height="47.81" rx="1.5"/><path class="cls-2" d="M388.08,41.16V86H383.3V41.16h4.78m0-3H383.3a3,3,0,0,0-3,3V86a3,3,0,0,0,3,3h4.78a3,3,0,0,0,3-3V41.16a3,3,0,0,0-3-3Z"/><path class="cls-1" d="M403.81,88.05a12.07,12.07,0,0,1-8.37-2.81,10.3,10.3,0,0,1-3.15-8c0-7.31,5.63-11.19,16.75-11.53l3.9-.12v-.51c0-2.08-.41-3.59-1.21-4.48s-2.11-1.27-4-1.27a19.48,19.48,0,0,0-8.27,2.26,1.55,1.55,0,0,1-.66.15,1.44,1.44,0,0,1-.54-.1,1.47,1.47,0,0,1-.85-.84l-1.47-3.65a1.5,1.5,0,0,1,.67-1.88,24.3,24.3,0,0,1,5.46-2.12,23.76,23.76,0,0,1,5.95-.77c4.13,0,7.29,1,9.38,2.9s3.2,5,3.2,9.14V86a1.5,1.5,0,0,1-1.5,1.5h-3.54a1.5,1.5,0,0,1-1.47-1.19l-.38-1.82a12.31,12.31,0,0,1-3.43,2.41A15.88,15.88,0,0,1,403.81,88.05Zm5.79-15.9c-3.53.13-6,.65-7.49,1.55a3.86,3.86,0,0,0-1.81,3.61,3.44,3.44,0,0,0,1.05,2.8,5.1,5.1,0,0,0,3.41,1,8.21,8.21,0,0,0,6-2,7.55,7.55,0,0,0,2.08-5.77V72Z"/><path class="cls-2" d="M408,53.89c3.76,0,6.55.83,8.36,2.51s2.72,4.34,2.72,8V86h-3.54l-.95-4.49h-.23a13.18,13.18,0,0,1-4.71,4,14.36,14.36,0,0,1-5.86,1,10.57,10.57,0,0,1-7.36-2.42,8.84,8.84,0,0,1-2.66-6.88q0-9.57,15.29-10l5.36-.17v-2q0-3.71-1.6-5.48c-1.06-1.18-2.77-1.77-5.11-1.77a20.85,20.85,0,0,0-8.93,2.41l-1.47-3.65A22.91,22.91,0,0,1,408,53.89M404.76,82.6a9.74,9.74,0,0,0,7-2.44,9.09,9.09,0,0,0,2.54-6.86V70.45l-4.78.2q-5.7.21-8.22,1.77a5.36,5.36,0,0,0-2.52,4.89,4.91,4.91,0,0,0,1.57,3.94,6.53,6.53,0,0,0,4.39,1.35M408,50.89A26.11,26.11,0,0,0,395.9,54a3,3,0,0,0-1.35,3.76L396,61.37a3,3,0,0,0,1.7,1.68,2.87,2.87,0,0,0,1.08.2,3,3,0,0,0,1.31-.3,18.08,18.08,0,0,1,7.62-2.11,4.05,4.05,0,0,1,2.88.77,4.42,4.42,0,0,1,.79,2.54l-2.42.08c-15,.45-18.19,7.33-18.19,13a11.73,11.73,0,0,0,3.65,9.1,13.46,13.46,0,0,0,9.37,3.2,17.19,17.19,0,0,0,7.09-1.32,10.37,10.37,0,0,0,1.9-1.08A3,3,0,0,0,415.56,89h3.54a3,3,0,0,0,3-3V64.43c0-4.54-1.24-8-3.68-10.24s-5.88-3.3-10.4-3.3ZM404.76,79.6a3.77,3.77,0,0,1-2.43-.62c-.15-.13-.53-.46-.53-1.67A2.36,2.36,0,0,1,402.91,75c.68-.43,2.47-1.17,6.74-1.32l1.67-.07A6,6,0,0,1,409.7,78a6.79,6.79,0,0,1-4.94,1.61Z"/><path class="cls-1" d="M426.6,101.64a20.78,20.78,0,0,1-4.65-.52,1.51,1.51,0,0,1-1.17-1.47V95.83a1.5,1.5,0,0,1,.56-1.17,1.48,1.48,0,0,1,.94-.33,1.66,1.66,0,0,1,.32,0,15,15,0,0,0,3.22.31c2.66,0,4.45-1.45,5.63-4.56l1.55-4L420.49,55a1.48,1.48,0,0,1,.15-1.4,1.5,1.5,0,0,1,1.24-.66H427a1.51,1.51,0,0,1,1.41,1l6.91,18q.94,2.58,1.59,4.54l.21-.61c.79-2.34,3.35-9.51,7.83-21.9a1.49,1.49,0,0,1,1.41-1h5.13a1.49,1.49,0,0,1,1.23.65,1.5,1.5,0,0,1,.17,1.38L439.32,90.88c-1.45,3.84-3.13,6.51-5.15,8.19A11.51,11.51,0,0,1,426.6,101.64Z"/><path class="cls-2" d="M451.49,54.41h0m0,0L437.92,90.35q-2,5.33-4.71,7.56a10,10,0,0,1-6.61,2.23,19,19,0,0,1-4.32-.49V95.82a16.72,16.72,0,0,0,3.54.35q4.94,0,7-5.53l1.76-4.49L421.88,54.41H427l6.92,18a68.44,68.44,0,0,1,2.82,8.9H437q.38-1.47,1.57-5t7.82-21.87h5.13m0-3h-5.13a3,3,0,0,0-2.82,2c-3.13,8.65-5.32,14.76-6.63,18.46l-.18-.48-6.93-18a3,3,0,0,0-2.8-1.92h-5.12a3,3,0,0,0-2.78,4.11l12.28,30.64-1.32,3.39c-1.22,3.19-2.82,3.62-4.24,3.62a13.33,13.33,0,0,1-2.9-.28,3.48,3.48,0,0,0-.64-.07,3,3,0,0,0-3,3v3.83a3,3,0,0,0,2.33,2.93,22.72,22.72,0,0,0,5,.56,12.94,12.94,0,0,0,8.52-2.92c2.23-1.84,4.06-4.72,5.61-8.81l13.52-35.82a3.11,3.11,0,0,0,.24-1.18,3,3,0,0,0-3-3Zm0,6Z"/><path class="cls-1" d="M264.91,106.77c-10.84,0-15.7-5.49-15.7-10.94,0-1.38.42-6.14,5.82-9.34,3.34-2,7.53-2.74,10.67-3a6.78,6.78,0,0,1-.71-4.13h0c-8.09,0-12.46-6.12-12.46-11.87a13.45,13.45,0,0,1,4.75-10c4.34-3.58,9.38-4,12.8-4h13.6a1.5,1.5,0,0,1,.73,2.81l-4.23,2.38a1.53,1.53,0,0,1-.73.19H279a11.74,11.74,0,0,1,2.54,7.42c0,5.7-3.47,8.47-6,10.49l0,0c-.81.81-1.31,1.34-1.31,2.08s.43,1.07,1.15,1.66l2.37,1.84c3,2.55,6.12,5.15,6.12,10.43C283.77,99.74,277.29,106.77,264.91,106.77Zm4.22-18.68a24.56,24.56,0,0,0-6.45,1c-2,.72-4.66,2.06-4.66,5.38,0,3.92,4.07,6.56,10.12,6.56,5.14,0,8.21-2.11,8.21-5.64,0-2.42-1.34-3.76-6.25-7.26C269.84,88.09,269.58,88.09,269.13,88.09ZM265.9,58.64a4.7,4.7,0,0,0-3.45,1.62,6.08,6.08,0,0,0-1.13,3.95c0,3.46,2,10.25,6.76,10.25a5.28,5.28,0,0,0,3.43-1.41,5.21,5.21,0,0,0,1.2-3.76C272.71,65.47,270.44,58.64,265.9,58.64Z"/><path class="cls-2" d="M283.66,55l-4.23,2.38h-4.09A11.14,11.14,0,0,1,280,66.26c0,4.88-2.77,7.19-5.54,9.37-.86.86-1.85,1.78-1.85,3.24a3.63,3.63,0,0,0,1.72,2.84l2.38,1.84c2.9,2.44,5.54,4.69,5.54,9.25,0,6.2-6,12.47-17.36,12.47-9.58,0-14.2-4.55-14.2-9.44,0-2.38,1.19-5.74,5.09-8,4.09-2.51,9.64-2.84,12.61-3a6.91,6.91,0,0,1-2-4.49,6.12,6.12,0,0,1,.66-2.58c-.72.07-1.45.14-2.11.14-7,0-11-5.22-11-10.37a11.87,11.87,0,0,1,4.23-8.84C262,55.49,266.49,55,270.06,55h13.6M268.08,76a6,6,0,0,0,6.13-6.67c0-4.75-2.83-12.15-8.31-12.15a6.19,6.19,0,0,0-4.63,2.18,7.65,7.65,0,0,0-1.45,4.89c0,4.42,2.58,11.75,8.26,11.75m.06,26.55c6.34,0,9.71-3.05,9.71-7.14,0-3.37-2.18-5.15-7.2-8.71a10.14,10.14,0,0,0-1.52-.07,26.23,26.23,0,0,0-6.93,1.06c-1.45.52-5.68,2.11-5.68,6.8s4.56,8.06,11.62,8.06M283.66,52h-13.6c-5.72,0-10.21,1.42-13.73,4.32l-.05,0A15,15,0,0,0,251,67.44a13.29,13.29,0,0,0,12.43,13.3,8.8,8.8,0,0,0,.2,1.43,24.78,24.78,0,0,0-9.41,3,12.52,12.52,0,0,0-6.52,10.61c0,6.19,5.32,12.44,17.2,12.44,13.36,0,20.36-7.78,20.36-15.47,0-6-3.67-9.07-6.61-11.55l-.09-.07-2.35-1.82a5.33,5.33,0,0,1-.58-.52,4.81,4.81,0,0,1,.83-1c2.66-2.09,6.55-5.25,6.55-11.62a13.13,13.13,0,0,0-1.68-6.55l3.79-2.13A3,3,0,0,0,283.66,52Zm0,6ZM268.08,73c-3.45,0-5.26-5.7-5.26-8.75a4.76,4.76,0,0,1,.79-3,3.21,3.21,0,0,1,2.29-1.07c3.08,0,5.31,5.47,5.31,9.15a3.87,3.87,0,0,1-.77,2.7,3.8,3.8,0,0,1-2.36,1Zm-4.9,17.52a23.8,23.8,0,0,1,5.95-.89h.46c4.35,3.12,5.26,4.16,5.26,5.78,0,3.84-5.13,4.14-6.71,4.14-5.15,0-8.62-2-8.62-5.06,0-1.85,1.1-3,3.66-4Z"/><path class="cls-1" d="M233.77,87.1A17.15,17.15,0,0,1,216.19,70c0-9.82,8.16-17.51,18.58-17.51a17,17,0,0,1,17.25,17C252,78.19,245.19,87.1,233.77,87.1Zm-.72-29.53a7.72,7.72,0,0,0-4.94,1.87c-2.22,2-2.53,4.5-2.53,6.92,0,6.35,3.09,15.76,9.71,15.76a6.92,6.92,0,0,0,5.5-2.73c1.17-1.56,1.7-3.6,1.7-6.45C242.49,67.93,240.18,57.57,233.05,57.57Z"/><path class="cls-2" d="M234.77,54a15.41,15.41,0,0,1,15.75,15.55c0,7.78-6,16-16.75,16A15.55,15.55,0,0,1,217.69,70c0-8.63,7.05-16,17.08-16m.52,29.59A8.41,8.41,0,0,0,242,80.26a11.89,11.89,0,0,0,2-7.32c0-5.8-2.77-16.87-10.94-16.87a9.21,9.21,0,0,0-5.93,2.24c-2.57,2.31-3,5.21-3,8,0,6.52,3.23,17.26,11.21,17.26M234.77,51c-11.26,0-20.08,8.35-20.08,19A18.63,18.63,0,0,0,233.77,88.6c12.36,0,19.75-9.67,19.75-19A18.47,18.47,0,0,0,234.77,51Zm.52,29.59c-5.8,0-8.21-9.29-8.21-14.26,0-2.87.58-4.5,2-5.81a6.16,6.16,0,0,1,3.93-1.48c5.61,0,7.94,9,7.94,13.87,0,2.51-.44,4.27-1.38,5.52l0,.05a5.48,5.48,0,0,1-4.29,2.11Z"/><path class="cls-1" d="M198.05,87.1A17.15,17.15,0,0,1,180.46,70c0-9.82,8.16-17.51,18.58-17.51a17,17,0,0,1,17.25,17C216.29,78.19,209.47,87.1,198.05,87.1Zm-.73-29.53a7.72,7.72,0,0,0-4.94,1.87c-2.22,2-2.52,4.5-2.52,6.92,0,6.35,3.08,15.76,9.71,15.76a7,7,0,0,0,5.5-2.73c1.16-1.56,1.7-3.6,1.7-6.45C206.77,67.93,204.46,57.57,197.32,57.57Z"/><path class="cls-2" d="M199,54a15.4,15.4,0,0,1,15.75,15.55c0,7.78-6,16-16.74,16A15.56,15.56,0,0,1,182,70C182,61.41,189,54,199,54m.53,29.59a8.43,8.43,0,0,0,6.72-3.36,12,12,0,0,0,2-7.32c0-5.8-2.77-16.87-11-16.87a9.21,9.21,0,0,0-5.93,2.24c-2.57,2.31-3,5.21-3,8,0,6.52,3.23,17.26,11.21,17.26M199,51C187.78,51,179,59.38,179,70A18.64,18.64,0,0,0,198.05,88.6c12.35,0,19.74-9.67,19.74-19A18.47,18.47,0,0,0,199,51Zm.53,29.59c-5.8,0-8.21-9.29-8.21-14.26,0-2.87.57-4.5,2-5.81a6.16,6.16,0,0,1,3.93-1.48c5.62,0,8,9,8,13.87,0,2.51-.44,4.27-1.38,5.52l0,.05a5.39,5.39,0,0,1-4.28,2.11Z"/><path class="cls-1" d="M156.52,89.38c-18.38,0-26.75-13.22-26.75-25.49,0-13.06,9.71-26.28,28.27-26.28a39.45,39.45,0,0,1,10.54,1.44,27.17,27.17,0,0,1,8.93,4.14l.26.18a1.44,1.44,0,0,1,.65,1.11,1.47,1.47,0,0,1-.46,1.21l-5.5,5.24a1.58,1.58,0,0,1-.7.37l-2.32.53a1.24,1.24,0,0,1-.33,0,1.5,1.5,0,0,1-1.28-2.3l1-1.61a16.87,16.87,0,0,0-12.26-5c-9.92,0-16.86,7.42-16.86,18,0,11,7.7,22.69,22,22.69a17.82,17.82,0,0,0,6.92-1.18V74.48l-8.51.45a1.5,1.5,0,0,1-.71-2.82l5.3-2.85a1.5,1.5,0,0,1,.71-.18h14.05a1.48,1.48,0,0,1,1.39.94,1.49,1.49,0,0,1-.35,1.64l-1.72,1.66-.21.18s0,0,0,.06c-.06.59-.11,2.27-.11,2.92v8.09A1.51,1.51,0,0,1,177.26,86l-9.47,2.19-.11,0A72.3,72.3,0,0,1,156.52,89.38Z"/><path class="cls-2" d="M158,39.11a37.92,37.92,0,0,1,10.14,1.39,25.75,25.75,0,0,1,8.75,4.11l-5.51,5.23-2.31.53,1.65-2.65c-2.25-2.19-6.36-6.23-14.18-6.23-10.47,0-18.36,8-18.36,19.55,0,12.46,9,24.19,23.46,24.19a19.68,19.68,0,0,0,8.42-1.66V72.9l-10,.53,5.3-2.85h14.05l-1.72,1.66a1.56,1.56,0,0,0-.66,1.05c-.07.6-.13,2.53-.13,3.19v8.09l-9.48,2.18a70.05,70.05,0,0,1-10.93,1.13c-18.3,0-25.25-13.46-25.25-24,0-12.86,9.87-24.78,26.77-24.78m0-3c-8.77,0-16.33,2.92-21.85,8.45a27.14,27.14,0,0,0-7.92,19.33c0,13,8.84,27,28.25,27a73.29,73.29,0,0,0,11.39-1.16l.21,0,9.48-2.19a3,3,0,0,0,2.33-2.92V76.48c0-.5,0-1.57.07-2.27l1.52-1.47a3,3,0,0,0-2.08-5.16H165.39a3,3,0,0,0-1.42.36l-5.3,2.85a3,3,0,0,0,1.42,5.64h.16l6.85-.36v5.42a16.93,16.93,0,0,1-5.42.74c-13.29,0-20.46-10.92-20.46-21.19,0-9.74,6.32-16.55,15.36-16.55a15,15,0,0,1,10.32,3.74l-.34.55a3,3,0,0,0,2.55,4.59,3,3,0,0,0,.66-.08l2.32-.52a2.92,2.92,0,0,0,1.4-.76l5.5-5.23a3,3,0,0,0-.37-4.65l-.26-.18A28.58,28.58,0,0,0,169,37.61a40.89,40.89,0,0,0-11-1.5Z"/><path class="cls-1" d="M285.48,86a1.5,1.5,0,0,1-1.34-.84,1.53,1.53,0,0,1,.15-1.58l.4-.52c1.08-1.39,1.08-1.39,1.08-2.07V41.52h-3.56a1.51,1.51,0,0,1-.65-2.86l5-2.38a1.47,1.47,0,0,1,.65-.15h9.48a1.5,1.5,0,0,1,.75,2.8c-2,1.13-2.06,1.2-2.25,2.78l0,.32V79.48a3.75,3.75,0,0,0,.15,1.52h0a6.75,6.75,0,0,0,1.13.16c.57.07,1.1.12,1.63.16l1.8.18a1.5,1.5,0,0,1,.58,2.78L298,85.74a1.59,1.59,0,0,1-.77.21Z"/><path class="cls-2" d="M296.66,37.63h0m0,0c-2.06,1.19-2.72,1.59-3,3.91l0,.43V79.48c0,2.58.46,3,2.64,3.18,1.13.13,2.26.19,3.39.33l-2.46,1.46H285.48c1.53-2,1.79-2.19,1.79-3.51V40h-5.07l5-2.39h9.48m0-3h-9.49a3,3,0,0,0-1.3.3l-5,2.38a3,3,0,0,0,1.3,5.71h2.06V81.08c-.14.21-.45.62-.76,1l-.41.53a3,3,0,0,0,2.38,4.83h11.73a3,3,0,0,0,1.53-.42l2.46-1.46A3,3,0,0,0,300,80c-.62-.07-1.23-.13-1.85-.18s-1-.09-1.54-.15V41.84a3.39,3.39,0,0,1,.15-.76,10.7,10.7,0,0,1,1.3-.82,3,3,0,0,0-1.44-5.63Zm0,6h0Z"/><path class="cls-1" d="M314.69,87.2a15.42,15.42,0,0,1-9.63-2.85c-5.4-3.81-7.33-10.3-7.33-15.1a16.47,16.47,0,0,1,16.57-16.7,14.31,14.31,0,0,1,7.59,2.07A12.45,12.45,0,0,1,327.12,62a1.49,1.49,0,0,1-.87,1.82l-15.46,6.26a1.46,1.46,0,0,1-.45.1l-3.32.26c1.78,6.35,6.24,10.37,11.69,10.37a15.75,15.75,0,0,0,7.36-2.14,1.44,1.44,0,0,1,.67-.16,1.48,1.48,0,0,1,1.23.64,1.5,1.5,0,0,1-.2,1.95l-3.49,3.29a1.34,1.34,0,0,1-.31.22l-.68.39c-.51.29-1,.6-1.59.85A16.64,16.64,0,0,1,314.69,87.2Zm-2.23-29.48c-2.1,0-6.07,1.6-6.07,7.64,0,.41,0,.84.05,1.28l10-4.36a5.15,5.15,0,0,0,1-.45C317.41,60,315.08,57.72,312.46,57.72Z"/><path class="cls-2" d="M314.3,54.05a12.79,12.79,0,0,1,6.78,1.84,10.93,10.93,0,0,1,4.61,6.51l-15.47,6.26-5.07.39c1.65,8.36,7.31,13.23,13.56,13.23a17.09,17.09,0,0,0,8-2.3l-3.49,3.29c-.72.39-1.44.86-2.17,1.18a15.26,15.26,0,0,1-6.39,1.25,14.05,14.05,0,0,1-8.75-2.56c-4.67-3.3-6.71-9-6.71-13.89,0-10.2,8.29-15.2,15.07-15.2m-9.21,14.81,12-5.21c1.25-.46,1.9-.85,1.9-1.77,0-2.63-3-5.66-6.51-5.66-2.64,0-7.57,2-7.57,9.14,0,1.12.13,2.31.2,3.5m9.21-17.81a18,18,0,0,0-18.07,18.2c0,5.18,2.1,12.19,8,16.34a17.07,17.07,0,0,0,10.48,3.11,18,18,0,0,0,7.63-1.52,18.25,18.25,0,0,0,1.72-.91l.65-.37a3.07,3.07,0,0,0,.62-.45l3.49-3.29A3,3,0,0,0,326.74,77a3.05,3.05,0,0,0-1.34.31,14.2,14.2,0,0,1-6.69,2c-4.23,0-7.8-2.86-9.66-7.52l1.41-.11a3.49,3.49,0,0,0,.89-.21l15.46-6.26a3,3,0,0,0,1.75-3.64,13.79,13.79,0,0,0-5.82-8.15l-.05,0a15.83,15.83,0,0,0-8.39-2.31Zm-6.37,13.3c.46-5.07,4.35-5.13,4.53-5.13A4,4,0,0,1,315.65,61l-7.72,3.35Z"/><path class="cls-1" d="M329.08,60.34a1.5,1.5,0,0,1-1.5-1.5V56a1.51,1.51,0,0,1-1.44-1.5v-.45a1.5,1.5,0,0,1,1.5-1.5H331a1.5,1.5,0,0,1,1.5,1.5v.45A1.51,1.51,0,0,1,331.1,56v2.84a1.5,1.5,0,0,1-1.5,1.5Z"/><path class="cls-2" d="M331,54.05v.45H329.6v4.34h-.52V54.5h-1.44v-.45H331m0-3h-3.4a3,3,0,0,0-3,3v.45a3,3,0,0,0,1.44,2.56v1.78a3,3,0,0,0,3,3h.52a3,3,0,0,0,3-3V57.06A3,3,0,0,0,334,54.5v-.45a3,3,0,0,0-3-3Z"/><path class="cls-1" d="M335.52,60.34a1.58,1.58,0,0,1-.68-.16,1.55,1.55,0,0,1-.68.16h-.41a1.55,1.55,0,0,1-.68-.16,1.59,1.59,0,0,1-.69.16h-.48a1.5,1.5,0,0,1-1.5-1.5V54.05a1.5,1.5,0,0,1,1.5-1.5h.83a1.52,1.52,0,0,1,1.22.62,1.49,1.49,0,0,1,1.22-.62H336a1.5,1.5,0,0,1,1.5,1.5v4.79a1.5,1.5,0,0,1-1.5,1.5Z"/><path class="cls-2" d="M336,54.05v4.79h-.48V54.46h0l-1.34,4.38h-.41l-1.35-4.38h0v4.38h-.48V54.05h.83L334,57.92h0l1.21-3.87H336m0-3h-.83a2.93,2.93,0,0,0-1.22.26,3,3,0,0,0-1.22-.26h-.83a3,3,0,0,0-3,3v4.79a3,3,0,0,0,3,3h.48a3,3,0,0,1,1.37,0h.41a2.93,2.93,0,0,1,1.36,0H336a3,3,0,0,0,3-3V54.05a3,3,0,0,0-3-3Z"/><path class="cls-1" d="M141.14,27.7a1.5,1.5,0,0,1-1.5-1.5,18.64,18.64,0,0,0-.57-2.35h-2.51a13.36,13.36,0,0,0-.58,2.36,1.54,1.54,0,0,1-1.5,1.49h-3.1a1.5,1.5,0,0,1-1.5-1.5c0-.38,0-.68,2.5-7.13a61.27,61.27,0,0,0,2.31-6.37,1.5,1.5,0,0,1,1.5-1.4h3.89a1.5,1.5,0,0,1,1.49,1.4c.05.24.33,1.35,2.1,6.32,2.26,6.37,2.26,6.8,2.26,7.18a1.5,1.5,0,0,1-1.5,1.5Z"/><path class="cls-2" d="M140.08,12.8a56.36,56.36,0,0,0,2.17,6.72,59.39,59.39,0,0,1,2.18,6.68h-3.29a22.59,22.59,0,0,0-.94-3.85h-4.75a19.54,19.54,0,0,0-1,3.85h-3.1q0-.4,2.4-6.58a51.11,51.11,0,0,0,2.41-6.82h3.89m-4.15,7.59h3.74a58,58,0,0,1-1.75-5.74h-.17c0,.26-.61,2.18-1.82,5.74M140.08,9.8h-3.89a3,3,0,0,0-3,2.65c-.09.34-.48,1.6-2.22,6.08-2.61,6.71-2.61,7-2.61,7.67a3,3,0,0,0,.88,2.12,3,3,0,0,0,2.12.88h3.1a3,3,0,0,0,3-2.9,8.08,8.08,0,0,1,.21-.95h.23c.16.61.2.87.22,1a3,3,0,0,0,3,2.89h3.29a3,3,0,0,0,3-3c0-.62,0-1.07-2.35-7.69-1.59-4.48-1.94-5.71-2-6a3,3,0,0,0-3-2.67Z"/><path class="cls-1" d="M155.16,27.7a1.49,1.49,0,0,1-1.46-1.15,41.14,41.14,0,0,0-2.6-3.94l-.54-.78c0,1.28.06,2.72.13,4.31a1.53,1.53,0,0,1-.42,1.1,1.47,1.47,0,0,1-1.08.46h-2.53a1.49,1.49,0,0,1-1.5-1.57c.1-2.08.15-4.41.15-6.94s-.05-4.59-.15-6.3a1.49,1.49,0,0,1,.4-1.12,1.52,1.52,0,0,1,1.1-.47h3.05a1.5,1.5,0,0,1,1.48,1.26,30.46,30.46,0,0,0,2.31,3.76l.25.38c0-1.25-.06-2.53-.12-3.82a1.52,1.52,0,0,1,.41-1.11,1.5,1.5,0,0,1,1.09-.47h2.57a1.51,1.51,0,0,1,1.09.47,1.54,1.54,0,0,1,.41,1.12c-.1,1.65-.15,3.77-.15,6.3s0,4.9.15,6.94a1.49,1.49,0,0,1-.42,1.11,1.51,1.51,0,0,1-1.08.46Z"/><path class="cls-2" d="M157.7,12.8c-.1,1.7-.15,3.84-.15,6.39s0,4.92.15,7h-2.54c0-.28-.95-1.76-2.83-4.45S149.23,17,149,15.93h-.16A36.43,36.43,0,0,1,149,20c0,1.69.05,3.76.15,6.19h-2.53q.15-3.18.15-7t-.15-6.39h3.05q0,.55,2.54,4.36a25.39,25.39,0,0,1,3.11,5.48h.16a37.53,37.53,0,0,1-.25-4.12c0-1.85-.05-3.76-.14-5.72h2.57m0-3h-2.57a3,3,0,0,0-2.18.93,3.08,3.08,0,0,0-.53.78,3,3,0,0,0-2.71-1.71h-3.05a3,3,0,0,0-3,3.18c.1,1.69.15,3.78.15,6.21s-.05,4.8-.15,6.87a3,3,0,0,0,3,3.14h2.53a3,3,0,0,0,2.93-2.38c.09.13.14.22.18.29a3,3,0,0,0,2.86,2.09h2.54a3,3,0,0,0,2.17-.93,3.05,3.05,0,0,0,.83-2.21c-.1-2-.15-4.34-.15-6.87s0-4.59.14-6.22a3,3,0,0,0-.81-2.23,3,3,0,0,0-2.18-.94Zm0,6Z"/><path class="cls-1" d="M165.49,27.83c-1,0-2.47,0-4.27-.13a1.51,1.51,0,0,1-1.43-1.56c.09-2.05.14-4.39.14-6.95s-.05-4.57-.13-6.31a1.5,1.5,0,0,1,1.49-1.58h1.8l1.27,0,1.19,0c2.91,0,5.1.79,6.5,2.35A7.87,7.87,0,0,1,174.11,19a9.09,9.09,0,0,1-2.23,6.08A8,8,0,0,1,165.49,27.83Zm0-11.52c0,.94,0,1.9,0,2.88,0,1.18,0,2.35,0,3.51a2.27,2.27,0,0,0,2-.79,3.77,3.77,0,0,0,.75-2.43,3.51,3.51,0,0,0-.79-2.36A2.73,2.73,0,0,0,165.48,16.31Z"/><path class="cls-2" d="M165.55,12.74q3.72,0,5.39,1.85A6.4,6.4,0,0,1,172.61,19a7.56,7.56,0,0,1-1.87,5.1,6.54,6.54,0,0,1-5.25,2.19c-1,0-2.41,0-4.2-.13q.14-3.11.14-7,0-3.74-.14-6.39h1.8l1.32,0,1.14,0m-.09,11.47a3.88,3.88,0,0,0,3.28-1.38,5.28,5.28,0,0,0,1.06-3.35,5,5,0,0,0-1.15-3.33,4.37,4.37,0,0,0-3.52-1.35,11.07,11.07,0,0,0-1.21.09c.07,1.37.1,2.81.1,4.3s0,3.27.1,4.88a6.85,6.85,0,0,0,1.34.14m.09-14.47-1.24,0-1.22,0h-1.8a3,3,0,0,0-3,3.15c.08,1.71.13,3.81.13,6.24s-.05,4.86-.13,6.88a3,3,0,0,0,2.86,3.13c1.84.08,3.26.13,4.33.13A9.59,9.59,0,0,0,173,26.1,10.56,10.56,0,0,0,175.61,19a9.36,9.36,0,0,0-2.44-6.46c-1.7-1.88-4.27-2.84-7.62-2.84Z"/><path class="cls-1" d="M183.32,27.7a1.5,1.5,0,0,1-1.43-1,18.89,18.89,0,0,0-1.6-4.07.78.78,0,0,0-.49-.23c0,1.25,0,2.51.08,3.78a1.51,1.51,0,0,1-.42,1.09,1.47,1.47,0,0,1-1.08.46h-2.86a1.51,1.51,0,0,1-1.08-.46,1.47,1.47,0,0,1-.42-1.1c.09-2.05.13-4.39.13-6.95s0-4.57-.13-6.31a1.5,1.5,0,0,1,1.5-1.58h1.78l1.24,0,1.87,0c5.41,0,6.22,3,6.22,4.73A4.9,4.9,0,0,1,185,19.75a6.36,6.36,0,0,1,.55.81,35.63,35.63,0,0,1,2.22,5.12,1.49,1.49,0,0,1-1.4,2Zm-3.58-11.51c0,.4,0,.84,0,1.3C181,17.4,181,17,181,16.73s0-.54-1.14-.54Z"/><path class="cls-2" d="M180.41,12.74q4.72,0,4.72,3.23a3.62,3.62,0,0,1-2.69,3.57v.16a3.2,3.2,0,0,1,1.82,1.62,36.37,36.37,0,0,1,2.11,4.88h-3.05a20.77,20.77,0,0,0-1.83-4.5,2.4,2.4,0,0,0-2.06-.85h-1.14q0,2.64.09,5.34h-2.86q.14-3.11.13-7,0-3.74-.13-6.39h1.78l1.29,0,1.82,0M179.24,19q3.27,0,3.27-2.28,0-2-2.64-2a8.82,8.82,0,0,0-1.71.14c.08,1.06.12,2.45.12,4.16l1,0m1.17-9.27-1.91,0-1.2,0h-1.78a3,3,0,0,0-3,3.15c.09,1.71.13,3.81.13,6.24s0,4.86-.13,6.88a3.05,3.05,0,0,0,.83,2.21,3,3,0,0,0,2.17.92h2.86a3,3,0,0,0,2.16-.91,3,3,0,0,0,.31-.39,3,3,0,0,0,2.47,1.3h3.05a3,3,0,0,0,2.81-4.05,38.2,38.2,0,0,0-2.29-5.26A6.5,6.5,0,0,0,188.13,16c0-1.46-.56-6.23-7.72-6.23Z"/><path class="cls-1" d="M194.4,28.07a7.53,7.53,0,0,1-5.63-2.37,8.17,8.17,0,0,1-2.25-5.89,8.87,8.87,0,0,1,2.33-6.26A7.75,7.75,0,0,1,194.74,11a7.54,7.54,0,0,1,5.63,2.37,8.2,8.2,0,0,1,2.25,5.9,8.9,8.9,0,0,1-2.34,6.26A7.77,7.77,0,0,1,194.4,28.07Zm.06-11.84a1.61,1.61,0,0,0-1.37.77,3.89,3.89,0,0,0-.73,2.48,3.84,3.84,0,0,0,.76,2.53,1.91,1.91,0,0,0,1.56.8A1.63,1.63,0,0,0,196,22a3.89,3.89,0,0,0,.74-2.49A3.84,3.84,0,0,0,196,17,1.89,1.89,0,0,0,194.46,16.23Z"/><path class="cls-2" d="M194.74,12.49a6.08,6.08,0,0,1,4.55,1.91,6.73,6.73,0,0,1,1.83,4.86,7.37,7.37,0,0,1-1.94,5.23,6.25,6.25,0,0,1-4.78,2.08,6,6,0,0,1-4.55-1.91A6.72,6.72,0,0,1,188,19.81,7.41,7.41,0,0,1,190,14.57a6.31,6.31,0,0,1,4.79-2.08m-.06,11.82A3.12,3.12,0,0,0,197.23,23a5.37,5.37,0,0,0,1.05-3.4,5.31,5.31,0,0,0-1.1-3.48,3.38,3.38,0,0,0-2.72-1.34,3.14,3.14,0,0,0-2.55,1.35,5.35,5.35,0,0,0-1,3.4A5.31,5.31,0,0,0,192,23a3.4,3.4,0,0,0,2.72,1.35m.06-14.82a9.29,9.29,0,0,0-7,3A10.31,10.31,0,0,0,185,19.81a9.66,9.66,0,0,0,2.67,6.93,9.07,9.07,0,0,0,6.71,2.83,9.33,9.33,0,0,0,7-3,10.34,10.34,0,0,0,2.74-7.28,9.65,9.65,0,0,0-2.67-6.94,9.1,9.1,0,0,0-6.71-2.83Zm-.08,11.83h0c-.11,0-.19,0-.4-.25a2.29,2.29,0,0,1-.42-1.58,2.34,2.34,0,0,1,.41-1.56.89.89,0,0,1,.2-.2c.11,0,.19,0,.39.25a2.47,2.47,0,0,1,.42,1.58,2.4,2.4,0,0,1-.42,1.57.89.89,0,0,1-.2.2Z"/><path class="cls-1" d="M204,27.7a1.52,1.52,0,0,1-1.08-.46,1.55,1.55,0,0,1-.42-1.1c.09-2.1.14-4.44.14-6.95s0-4.58-.13-6.31a1.44,1.44,0,0,1,.41-1.11A1.48,1.48,0,0,1,204,11.3h2.92a1.48,1.48,0,0,1,1.08.47,1.44,1.44,0,0,1,.41,1.11c-.08,1.7-.13,3.83-.13,6.31s0,4.89.13,7a1.5,1.5,0,0,1-.41,1.1,1.52,1.52,0,0,1-1.08.46Z"/><path class="cls-2" d="M206.94,12.8q-.13,2.59-.14,6.39t.14,7H204q.14-3.18.14-7T204,12.8h2.92m0-3H204A3,3,0,0,0,201,13c.08,1.71.13,3.81.13,6.24s0,4.8-.13,6.89a3,3,0,0,0,3,3.12h2.92a3,3,0,0,0,3-3.13c-.08-2-.13-4.34-.13-6.88s0-4.57.13-6.23a3,3,0,0,0-3-3.16Zm0,6Z"/><path class="cls-1" d="M214.73,27.83c-1,0-2.47,0-4.27-.13A1.51,1.51,0,0,1,209,26.14c.09-2.05.14-4.39.14-6.95s0-4.57-.14-6.31a1.52,1.52,0,0,1,1.5-1.58h1.8l1.27,0,1.19,0c2.91,0,5.1.79,6.5,2.35A7.87,7.87,0,0,1,223.35,19a9.09,9.09,0,0,1-2.23,6.08A8,8,0,0,1,214.73,27.83Zm0-11.52c0,.94,0,1.9,0,2.88,0,1.18,0,2.35.05,3.51a2.27,2.27,0,0,0,2-.79,3.77,3.77,0,0,0,.75-2.43,3.51,3.51,0,0,0-.79-2.36A2.76,2.76,0,0,0,214.71,16.31Z"/><path class="cls-2" d="M214.79,12.74c2.48,0,4.27.62,5.39,1.85A6.44,6.44,0,0,1,221.85,19a7.56,7.56,0,0,1-1.87,5.1,6.54,6.54,0,0,1-5.25,2.19c-1,0-2.41,0-4.2-.13q.14-3.11.14-7,0-3.74-.14-6.39h1.8l1.32,0,1.14,0m-.09,11.47A3.89,3.89,0,0,0,218,22.83,5.28,5.28,0,0,0,219,19.48a5,5,0,0,0-1.15-3.33,4.37,4.37,0,0,0-3.52-1.35,11.07,11.07,0,0,0-1.21.09c.06,1.37.1,2.81.1,4.3s0,3.27.1,4.88a6.78,6.78,0,0,0,1.34.14m.09-14.47-1.25,0-1.21,0h-1.8a3,3,0,0,0-2.17.94,2.92,2.92,0,0,0-.82,2.21c.08,1.72.13,3.81.13,6.24s0,4.86-.14,6.88a3,3,0,0,0,2.86,3.13c1.85.08,3.27.13,4.34.13a9.59,9.59,0,0,0,7.53-3.23A10.56,10.56,0,0,0,224.85,19a9.36,9.36,0,0,0-2.44-6.46c-1.71-1.88-4.27-2.84-7.62-2.84Z"/><path class="cls-1" d="M238.35,27.7a1.5,1.5,0,0,1-1.5-1.5,18.64,18.64,0,0,0-.57-2.35h-2.51a13.36,13.36,0,0,0-.58,2.36,1.54,1.54,0,0,1-1.5,1.49h-3.1a1.5,1.5,0,0,1-1.5-1.5c0-.38,0-.68,2.5-7.13a64.88,64.88,0,0,0,2.31-6.37,1.5,1.5,0,0,1,1.5-1.4h3.89a1.5,1.5,0,0,1,1.49,1.4c.05.28.37,1.45,2.1,6.32,2.26,6.37,2.26,6.8,2.26,7.18a1.5,1.5,0,0,1-1.5,1.5Z"/><path class="cls-2" d="M237.29,12.8a56.36,56.36,0,0,0,2.17,6.72,59.39,59.39,0,0,1,2.18,6.68h-3.29a22.59,22.59,0,0,0-.94-3.85h-4.76a20,20,0,0,0-1,3.85h-3.1q0-.4,2.4-6.58a52.9,52.9,0,0,0,2.41-6.82h3.89m-4.15,7.59h3.74a60,60,0,0,1-1.76-5.74H235c0,.26-.61,2.18-1.82,5.74M237.29,9.8H233.4a3,3,0,0,0-3,2.65c-.09.34-.48,1.6-2.22,6.08-2.61,6.71-2.61,7-2.61,7.67a3,3,0,0,0,3,3h3.1a3,3,0,0,0,3-2.9,8.08,8.08,0,0,1,.21-.95h.23c.16.61.2.87.22,1a3,3,0,0,0,3,2.89h3.29a3,3,0,0,0,3-3c0-.62,0-1.07-2.35-7.69-1.59-4.48-1.95-5.71-2-6a3,3,0,0,0-3-2.67Z"/><path class="cls-1" d="M243.87,27.7a1.55,1.55,0,0,1-1.09-.46,1.52,1.52,0,0,1-.41-1.11c.09-1.95.13-4.29.13-6.94,0-2.42,0-4.55-.13-6.31a1.52,1.52,0,0,1,.41-1.11,1.5,1.5,0,0,1,1.09-.47h1.79l1.42,0,1.91,0a7.4,7.4,0,0,1,4.13,1.13,4.48,4.48,0,0,1,2,3.94,5.53,5.53,0,0,1-2.51,4.9,9.24,9.24,0,0,1-4.47,1.38c0,1,.05,2.21.1,3.56a1.5,1.5,0,0,1-1.5,1.55Zm4.21-11.52c0,.49,0,1,0,1.53,1.37-.14,1.37-.63,1.37-.83S249.49,16.18,248.08,16.18Z"/><path class="cls-2" d="M249,12.74a5.87,5.87,0,0,1,3.3.89,3,3,0,0,1,1.35,2.68,4,4,0,0,1-1.82,3.63,8.1,8.1,0,0,1-4.49,1.18l-.69,0q0,1.93.12,5.1h-2.89q.13-3,.13-7,0-3.71-.13-6.39h1.79l1.46,0,1.87,0m-1.76,6.52c2.51,0,3.76-.8,3.76-2.38s-1-2.2-2.92-2.2a8.54,8.54,0,0,0-1.55.15c.08,1.3.11,2.76.11,4.4a5.47,5.47,0,0,0,.6,0M249,9.74l-2,0-1.37,0h-1.79a3,3,0,0,0-3,3.15c.09,1.74.13,3.84.13,6.24,0,2.63,0,4.94-.13,6.88a3,3,0,0,0,3,3.13h2.89a3,3,0,0,0,3-3.11c0-.78,0-1.5-.07-2.18a10.25,10.25,0,0,0,3.75-1.44,7,7,0,0,0,3.2-6.16,6,6,0,0,0-2.7-5.19A8.81,8.81,0,0,0,249,9.74Z"/><path class="cls-1" d="M256.21,27.7a1.55,1.55,0,0,1-1.09-.46,1.52,1.52,0,0,1-.41-1.11c.09-1.95.13-4.29.13-6.94,0-2.42,0-4.55-.13-6.31a1.5,1.5,0,0,1,1.5-1.58H258l1.42,0,1.91,0a7.38,7.38,0,0,1,4.13,1.13,4.48,4.48,0,0,1,2,3.94,5.53,5.53,0,0,1-2.51,4.9,9.24,9.24,0,0,1-4.47,1.38c0,1,.05,2.21.1,3.56a1.52,1.52,0,0,1-.42,1.09,1.47,1.47,0,0,1-1.08.46Zm4.22-11.52c0,.49,0,1,0,1.53,1.37-.14,1.37-.63,1.37-.83S261.83,16.18,260.43,16.18Z"/><path class="cls-2" d="M261.33,12.74a5.9,5.9,0,0,1,3.31.89A3,3,0,0,1,266,16.31a4,4,0,0,1-1.82,3.63,8.06,8.06,0,0,1-4.48,1.18l-.69,0c0,1.29,0,3,.11,5.1h-2.89q.14-3,.13-7,0-3.71-.13-6.39H258l1.46,0,1.87,0m-1.76,6.52c2.51,0,3.76-.8,3.76-2.38s-1-2.2-2.92-2.2a8.63,8.63,0,0,0-1.55.15c.08,1.3.12,2.76.12,4.4a5.15,5.15,0,0,0,.59,0m1.76-9.52-2,0L258,9.8h-1.79a3,3,0,0,0-3,3.15c.09,1.74.13,3.84.13,6.24,0,2.63,0,4.94-.13,6.88a3,3,0,0,0,3,3.13h2.89a3,3,0,0,0,3-3.11c0-.78-.05-1.51-.07-2.18a10.25,10.25,0,0,0,3.75-1.44,7,7,0,0,0,3.2-6.16,6,6,0,0,0-2.7-5.19,8.78,8.78,0,0,0-4.95-1.38Z"/><path class="cls-1" d="M279.44,28.07a7.54,7.54,0,0,1-5.63-2.37,8.21,8.21,0,0,1-2.25-5.89,8.88,8.88,0,0,1,2.34-6.26A7.74,7.74,0,0,1,279.78,11a7.51,7.51,0,0,1,5.63,2.37,8.18,8.18,0,0,1,2.25,5.9,8.89,8.89,0,0,1-2.33,6.26A7.77,7.77,0,0,1,279.44,28.07Zm.07-11.84a1.61,1.61,0,0,0-1.37.77,3.84,3.84,0,0,0-.74,2.48,3.79,3.79,0,0,0,.77,2.53,1.89,1.89,0,0,0,1.55.8,1.64,1.64,0,0,0,1.37-.77,3.94,3.94,0,0,0,.73-2.49,3.78,3.78,0,0,0-.76-2.53A1.88,1.88,0,0,0,279.51,16.23Z"/><path class="cls-2" d="M279.78,12.49a6.06,6.06,0,0,1,4.55,1.91,6.73,6.73,0,0,1,1.83,4.86,7.37,7.37,0,0,1-1.93,5.23,6.27,6.27,0,0,1-4.79,2.08,6,6,0,0,1-4.54-1.91,6.69,6.69,0,0,1-1.84-4.85A7.41,7.41,0,0,1,275,14.57a6.29,6.29,0,0,1,4.78-2.08m-.06,11.82A3.12,3.12,0,0,0,282.27,23a5.37,5.37,0,0,0,1.05-3.4,5.26,5.26,0,0,0-1.1-3.48,3.36,3.36,0,0,0-2.71-1.34A3.14,3.14,0,0,0,277,16.08a5.35,5.35,0,0,0-1.05,3.4A5.26,5.26,0,0,0,277,23a3.38,3.38,0,0,0,2.71,1.35m.06-14.82a9.32,9.32,0,0,0-7,3,10.35,10.35,0,0,0-2.74,7.28,9.66,9.66,0,0,0,2.67,6.93,9.1,9.1,0,0,0,6.71,2.83,9.31,9.31,0,0,0,7-3,10.31,10.31,0,0,0,2.74-7.28,9.61,9.61,0,0,0-2.67-6.94,9.07,9.07,0,0,0-6.71-2.83Zm-.07,11.83h0c-.1,0-.19,0-.39-.25a2.21,2.21,0,0,1-.43-1.58,2.31,2.31,0,0,1,.42-1.56.89.89,0,0,1,.2-.2c.11,0,.18,0,.39.25a2.53,2.53,0,0,1,.41,1.58,2.34,2.34,0,0,1-.42,1.57.78.78,0,0,1-.19.2Z"/><path class="cls-1" d="M297.57,27.7a1.5,1.5,0,0,1-1.46-1.15,38.69,38.69,0,0,0-2.6-3.94l-.54-.78c0,1.27.07,2.72.13,4.31a1.5,1.5,0,0,1-1.5,1.56h-2.53a1.55,1.55,0,0,1-1.09-.46,1.52,1.52,0,0,1-.41-1.11c.1-2.1.15-4.43.15-6.94s-.05-4.58-.15-6.3a1.54,1.54,0,0,1,.41-1.12,1.5,1.5,0,0,1,1.09-.47h3.06a1.51,1.51,0,0,1,1.48,1.26,28.86,28.86,0,0,0,2.31,3.76l.25.38c0-1.26-.07-2.54-.13-3.82a1.5,1.5,0,0,1,1.5-1.58h2.57a1.51,1.51,0,0,1,1.5,1.59c-.09,1.66-.14,3.78-.14,6.3s0,4.89.14,6.94a1.52,1.52,0,0,1-.41,1.11,1.55,1.55,0,0,1-1.09.46Z"/><path class="cls-2" d="M300.11,12.8c-.09,1.7-.14,3.84-.14,6.39s0,4.92.14,7h-2.54q0-.42-2.83-4.45-3-4.26-3.37-5.82h-.17a36.61,36.61,0,0,1,.26,4.08c0,1.69.05,3.76.14,6.19h-2.53q.15-3.18.15-7t-.15-6.39h3.06c0,.37.84,1.82,2.54,4.36a25.85,25.85,0,0,1,3.11,5.48h.15a40.19,40.19,0,0,1-.25-4.12c0-1.85,0-3.76-.14-5.72h2.57m0-3h-2.57a3,3,0,0,0-2.17.93,3.4,3.4,0,0,0-.54.78,3,3,0,0,0-2.7-1.71h-3.06a3,3,0,0,0-3,3.18c.09,1.69.14,3.78.14,6.21s-.05,4.8-.15,6.87a3,3,0,0,0,3,3.14h2.53a3,3,0,0,0,2.16-.92,3,3,0,0,0,.78-1.46l.17.29a3,3,0,0,0,2.86,2.09h2.54a3,3,0,0,0,3-3.14c-.09-2-.14-4.34-.14-6.87s0-4.59.14-6.22a3,3,0,0,0-.82-2.23,3,3,0,0,0-2.18-.94Zm0,6h0Z"/><path class="cls-1" d="M4.21,111.05a1.48,1.48,0,0,1-1.1-.66,10.59,10.59,0,0,1-1.61-6V10.63A10.07,10.07,0,0,1,3.74,3.81,1.56,1.56,0,0,1,4.82,3.3h0a1.49,1.49,0,0,1,1.07.45L57.45,55.87a1.5,1.5,0,0,1,0,2.11l-52,52.63a1.47,1.47,0,0,1-1.06.45Z"/><path class="cls-2" d="M4.86,4.8,56.38,56.93l-52,52.63A9.19,9.19,0,0,1,3,104.41V10.63A8.62,8.62,0,0,1,4.86,4.8m0-3H4.78a3,3,0,0,0-2.16,1A11.54,11.54,0,0,0,0,10.63v93.78a12.08,12.08,0,0,0,1.86,6.81,3,3,0,0,0,2.21,1.32l.29,0a3,3,0,0,0,2.13-.89L58.52,59a3,3,0,0,0,0-4.22L7,2.69A3,3,0,0,0,4.86,1.8Z"/><path class="cls-1" d="M58.24,56.55a1.49,1.49,0,0,1-1.07-.45L6,4.37A1.51,1.51,0,0,1,5.64,3a1.53,1.53,0,0,1,1-1.08,7.69,7.69,0,0,1,2.46-.4,11.15,11.15,0,0,1,5.45,1.6L75,37.5a1.49,1.49,0,0,1,.33,2.35L59.31,56.1A1.51,1.51,0,0,1,58.24,56.55Z"/><path class="cls-2" d="M9.07,3a9.66,9.66,0,0,1,4.71,1.41L74.3,38.8,58.24,55.05,7.11,3.32a5.92,5.92,0,0,1,2-.32m0-3A8.78,8.78,0,0,0,6.12.49,3,3,0,0,0,5,5.43L56.11,57.16a3,3,0,0,0,4.26,0L76.44,40.91a3,3,0,0,0,.83-2.52,3,3,0,0,0-1.48-2.2L15.26,1.8A12.61,12.61,0,0,0,9.07,0Z"/><path class="cls-1" d="M9.08,113.54a7.27,7.27,0,0,1-3.51-.87,1.53,1.53,0,0,1-.76-1.1,1.49,1.49,0,0,1,.42-1.27L57.17,57.75a1.49,1.49,0,0,1,1.07-.45,1.51,1.51,0,0,1,1.07.45l16.81,17A1.51,1.51,0,0,1,76.54,76a1.49,1.49,0,0,1-.75,1.1L14.52,111.93a11,11,0,0,1-5.44,1.61Z"/><path class="cls-2" d="M58.24,58.8l16.81,17L13.78,110.63A9.63,9.63,0,0,1,9.08,112a5.67,5.67,0,0,1-2.78-.69L58.24,58.8m0-3a3,3,0,0,0-2.13.89L4.16,109.24A3,3,0,0,0,4.85,114,8.68,8.68,0,0,0,9.08,115a12.57,12.57,0,0,0,6.18-1.8L76.54,78.42A3,3,0,0,0,78,76.22a3.06,3.06,0,0,0-.84-2.52l-16.82-17a3,3,0,0,0-2.13-.89Z"/><path class="cls-1" d="M77.43,76a1.51,1.51,0,0,1-1.07-.44L59,58a1.5,1.5,0,0,1,0-2.11L75.61,39.09a1.51,1.51,0,0,1,1.07-.44,1.42,1.42,0,0,1,.74.2l19.8,11.24c3.35,1.91,5.2,4.55,5.2,7.43S100.57,63,97.22,65l-19,10.82A1.51,1.51,0,0,1,77.43,76Z"/><path class="cls-2" d="M76.68,40.15,96.47,51.4c5.93,3.36,5.93,8.87,0,12.24l-19,10.82L60.09,56.93,76.68,40.15m0-3a3,3,0,0,0-2.13.89L58,54.82A3,3,0,0,0,58,59L75.3,76.57a3,3,0,0,0,2.13.89,3,3,0,0,0,1.48-.39L98,66.25c3.79-2.15,6-5.33,6-8.73s-2.17-6.58-6-8.73L78.16,37.54a3,3,0,0,0-1.48-.39Z"/></g></g></svg>