<svg xmlns="http://www.w3.org/2000/svg" viewBox="0 0 450.07 117.6"><defs><style>.cls-1{fill:#fff;}</style></defs><title>Ресурс 14</title><g id="Слой_2" data-name="Слой 2"><g id="Слой_1-2" data-name="Слой 1"><path class="cls-1" d="M101.05,86.27a83.75,83.75,0,0,1-7.64,14.27c-5,7.55-12,17-20.62,17-7.7.07-9.67-5-20.12-5s-12.64,5-20.34,5C23.67,117.52,17,109,12.08,101.47-1.79,80.35-3.24,55.56,5.31,42.38,11.39,33,21,27.54,30,27.54s15,5,22.55,5c7.36,0,11.85-5,22.47-5,8,0,16.53,4.37,22.59,11.93C77.77,50.34,81,78.69,101.05,86.27Z"/><path class="cls-1" d="M67,19.09C70.83,14.14,73.76,7.15,72.7,0,66.4.43,59,4.44,54.72,9.67c-3.91,4.75-7.13,11.78-5.87,18.62C55.72,28.51,62.84,24.4,67,19.09Z"/><path class="cls-1" d="M143.32,42.06l-19.88,58.51h9.11l5.93-18h19.24l6.11,18h9.35l-20-58.51ZM148,51.68c.67,2.61,1.39,5.33,2.32,8.26l5.36,15.51H140.47l5.29-15.61C146.56,57.3,147.32,54.57,148,51.68Z"/><path class="cls-1" d="M198.9,57.23c-6,0-10.86,2.33-14.07,6.75l-.36-5.82h-8.09l.05.75c.23,3.62.33,7.61.33,13.34v45.09h8.85v-21a15.55,15.55,0,0,0,12.1,5.2,18.29,18.29,0,0,0,13.42-5.7c3.87-4.1,5.92-10,5.92-17,0-6.22-1.78-11.59-5.14-15.54A16.85,16.85,0,0,0,198.9,57.23Zm-2.21,7.33c7.89,0,11.42,7.31,11.42,14.55,0,9.34-4.5,15.15-11.75,15.15A10.73,10.73,0,0,1,185.93,86a11,11,0,0,1-.32-2.86V76.06a13,13,0,0,1,.29-2.18c0-.25.09-.49.12-.72A11.21,11.21,0,0,1,196.69,64.56Z"/><path class="cls-1" d="M244.48,57.23c-6,0-10.86,2.33-14.08,6.75l-.35-5.82H222l0,.75c.24,3.63.35,7.61.35,13.34v45.09h8.85v-21a15.5,15.5,0,0,0,12.09,5.2,18.29,18.29,0,0,0,13.42-5.7c3.87-4.1,5.92-10,5.92-17,0-6.22-1.78-11.59-5.15-15.54A16.81,16.81,0,0,0,244.48,57.23Zm-2.21,7.33c7.89,0,11.42,7.31,11.42,14.55,0,9.34-4.5,15.15-11.75,15.15A10.73,10.73,0,0,1,231.51,86a11.05,11.05,0,0,1-.31-2.86V76.06a13,13,0,0,1,.28-2.19c0-.24.09-.48.13-.71A11.19,11.19,0,0,1,242.27,64.56Z"/><path class="cls-1" d="M301.58,66.85c-8.26-3.2-10.91-5.71-10.91-10.36,0-3.91,3.11-7.86,10.06-7.86a20,20,0,0,1,10.39,2.61l.75.46,2.5-7.39-.49-.29c-1.48-.86-5.71-2.89-12.89-2.89-11.29,0-19.17,6.67-19.17,16.2,0,7.7,4.93,13.07,15.53,16.93,7.51,2.81,10.31,5.68,10.31,10.61,0,5.58-4.31,9-11.25,9a24.23,24.23,0,0,1-12.76-3.62l-.77-.49-2.37,7.55.43.29c3.35,2.23,9.64,3.85,15,3.85,15.22,0,20.61-9.28,20.61-17.22C316.51,76.09,312.19,71,301.58,66.85Z"/><path class="cls-1" d="M332.44,48.08l-8.68,2.73v7.35h-6.35v7.08h6.35V86.91c0,5.23,1,8.91,3.07,11.23a11.38,11.38,0,0,0,8.56,3.36,20.66,20.66,0,0,0,6.84-1.06l.5-.17-.42-7.09-.85.26a13.46,13.46,0,0,1-4.12.48c-3.43,0-4.9-2.17-4.9-7.27V65.24h10.68V58.16H332.44Z"/><path class="cls-1" d="M365.06,57.23c-12.39,0-21,9.24-21,22.47,0,12.84,8.37,21.8,20.36,21.8h.08c10.14,0,21-7.06,21-22.56,0-6.3-1.95-11.71-5.64-15.65A19.72,19.72,0,0,0,365.06,57.23Zm-.26,7c8,0,11.59,7.76,11.59,15,0,8.87-4.95,15.31-11.76,15.31h-.08c-6.71,0-11.59-6.33-11.59-15.06C353,71.87,356.62,64.22,364.8,64.22Z"/><path class="cls-1" d="M412.61,57.64l-.53-.13a8.32,8.32,0,0,0-2.21-.28,12.62,12.62,0,0,0-11.09,7.13l-.26-6.2h-7.95l.05.75c.24,3.5.34,7.43.34,12.74l-.08,28.92h8.85V78a22.79,22.79,0,0,1,.24-3.43c1-5.42,4.66-8.92,9.31-8.92a21.21,21.21,0,0,1,2.38.15l.95.09Z"/><path class="cls-1" d="M432.51,57.15c-11.79,0-20,9.41-20,22.89,0,13,8.19,21.38,20.87,21.38a34,34,0,0,0,14-2.69l.53-.24-1.7-6.6-.74.3a27.45,27.45,0,0,1-11.09,2c-3.84,0-12.71-1.27-13.26-12.83l28.58.08.11-.56a19.64,19.64,0,0,0,.27-3.7C450.07,67.93,445.47,57.15,432.51,57.15Zm-.59,6.73a8.74,8.74,0,0,1,6.5,2.48c2.54,2.59,3,6.41,3,8.24H421.28C422.1,69.49,425.3,63.88,431.92,63.88Z"/><path class="cls-1" d="M123.44,2.1a64.41,64.41,0,0,1,8.5-.57c5.7,0,9.76,1.15,12.46,3.41s4.38,5.5,4.38,10a14,14,0,0,1-4.43,10.76c-2.92,2.59-7.67,4-13.65,4a63.29,63.29,0,0,1-7.26-.33Zm4,24.53a29.49,29.49,0,0,0,4,.16c8.49,0,13.1-4.27,13.1-11.75,0-6.61-4.06-10.68-12.46-10.68a25.56,25.56,0,0,0-4.66.37Z"/><path class="cls-1" d="M163,29.87c-5.94,0-10.59-3.94-10.59-10.23,0-6.65,4.88-10.56,10.95-10.56,6.35,0,10.64,4.15,10.64,10.19,0,7.4-5.71,10.6-11,10.6Zm.13-2.71c3.84,0,6.71-3.25,6.71-7.77,0-3.36-1.87-7.6-6.61-7.6s-6.76,4-6.76,7.73c0,4.35,2.74,7.64,6.62,7.64Z"/><path class="cls-1" d="M180.37,9.54l3,10.06c.59,2.22,1.19,4.31,1.6,6.37h.13c.51-2,1.24-4.15,2-6.33l3.6-10.1H194l3.43,9.94c.82,2.34,1.46,4.47,2,6.49h.13a55.41,55.41,0,0,1,1.69-6.45l3.15-10h4l-7.13,19.88h-3.65l-3.38-9.49a67.09,67.09,0,0,1-2-6.57h-.09a54.93,54.93,0,0,1-2,6.61l-3.56,9.45h-3.65L176.26,9.54Z"/><path class="cls-1" d="M212.37,14.92c0-2.1,0-3.74-.18-5.38h3.56l.23,3.24h.09a8.37,8.37,0,0,1,7.3-3.7c3.06,0,7.81,1.65,7.81,8.47V29.42h-4V18c0-3.21-1.33-5.92-5.12-5.92a5.72,5.72,0,0,0-5.38,3.7,4.7,4.7,0,0,0-.28,1.68v12h-4Z"/><path class="cls-1" d="M237.71.25h4V29.42h-4Z"/><path class="cls-1" d="M257.38,29.87c-5.93,0-10.59-3.94-10.59-10.23,0-6.65,4.89-10.56,11-10.56,6.34,0,10.63,4.15,10.63,10.19,0,7.4-5.7,10.6-10.95,10.6Zm.14-2.71c3.83,0,6.71-3.25,6.71-7.77,0-3.36-1.87-7.6-6.62-7.6s-6.75,4-6.75,7.73c0,4.35,2.73,7.64,6.62,7.64Z"/><path class="cls-1" d="M289,24.65a29.92,29.92,0,0,0,.32,4.77h-3.61l-.36-2.51h-.14a8.5,8.5,0,0,1-6.75,3c-4.48,0-6.76-2.83-6.76-5.71,0-4.81,4.75-7.44,13.28-7.39v-.41c0-1.65-.5-4.65-5-4.61a11.55,11.55,0,0,0-5.79,1.48l-.92-2.42a15.53,15.53,0,0,1,7.31-1.73c6.8,0,8.44,4.15,8.44,8.14Zm-3.92-5.38c-4.39-.08-9.36.62-9.36,4.48,0,2.38,1.73,3.45,3.74,3.45a5.57,5.57,0,0,0,5.43-3.33,3.3,3.3,0,0,0,.19-1.15Z"/><path class="cls-1" d="M314.54.25v24c0,1.77,0,3.78.18,5.14h-3.61L310.93,26h-.09c-1.23,2.22-3.88,3.9-7.48,3.9-5.35,0-9.5-4.07-9.5-10.11-.05-6.65,4.57-10.68,9.9-10.68,3.43,0,5.71,1.44,6.67,3h.09V.25Zm-4,17.38a5.94,5.94,0,0,0-.18-1.56,5.81,5.81,0,0,0-5.8-4.15c-4.15,0-6.62,3.28-6.62,7.64,0,4.07,2.24,7.39,6.53,7.39a6,6,0,0,0,5.89-4.31,5.57,5.57,0,0,0,.18-1.56Z"/><path class="cls-1" d="M339.87,29.87c-5.93,0-10.59-3.94-10.59-10.23,0-6.65,4.89-10.56,11-10.56,6.35,0,10.63,4.15,10.63,10.19,0,7.4-5.7,10.6-10.95,10.6Zm.14-2.71c3.84,0,6.71-3.25,6.71-7.77,0-3.36-1.87-7.6-6.62-7.6s-6.75,4-6.75,7.73c0,4.35,2.74,7.64,6.61,7.64Z"/><path class="cls-1" d="M355.94,14.92c0-2.1,0-3.74-.18-5.38h3.56l.23,3.24h.09a8.37,8.37,0,0,1,7.3-3.7c3.06,0,7.81,1.65,7.81,8.47V29.42h-4V18c0-3.21-1.32-5.92-5.11-5.92a5.75,5.75,0,0,0-5.39,3.7,4.93,4.93,0,0,0-.27,1.68v12h-4Z"/><path class="cls-1" d="M395.8,4.77V9.54h5.75v2.75H395.8V23c0,2.46.77,3.86,3,3.86a8.58,8.58,0,0,0,2.33-.24l.18,2.75a12.33,12.33,0,0,1-3.56.49,6.07,6.07,0,0,1-4.34-1.52c-1.09-1.11-1.55-2.88-1.55-5.22V12.29h-3.42V9.54h3.42V5.88Z"/><path class="cls-1" d="M406.07.25h4V12.66h.1a6.82,6.82,0,0,1,2.87-2.55,8.46,8.46,0,0,1,4.11-1c3,0,7.71,1.65,7.71,8.51V29.42h-4V18c0-3.25-1.33-5.92-5.11-5.92a5.78,5.78,0,0,0-5.39,3.62,3.91,3.91,0,0,0-.28,1.72v12h-4Z"/><path class="cls-1" d="M433.69,20.09C433.78,25,437.2,27,441.22,27a16.88,16.88,0,0,0,6.12-1l.73,2.55a19.88,19.88,0,0,1-7.4,1.27c-6.76,0-10.86-4.07-10.86-10S433.78,9,440.21,9c7.22,0,9.09,5.71,9.09,9.37a8.38,8.38,0,0,1-.14,1.72Zm11.73-2.58c0-2.26-1.05-5.88-5.53-5.88-4.11,0-5.84,3.37-6.16,5.88Z"/></g></g></svg>