<svg xmlns="http://www.w3.org/2000/svg" viewBox="0 0 426.17 426.17"><defs><style>.cls-1{fill:#fff;}</style></defs><title>Ресурс 10</title><g id="Слой_2" data-name="Слой 2"><g id="Слой_1-2" data-name="Слой 1"><path class="cls-1" d="M213.09,22c105.53,0,191.08,85.55,191.08,191.09S318.62,404.17,213.09,404.17,22,318.62,22,213.09,107.55,22,213.09,22m0-22a213.14,213.14,0,0,0-83,409.42A213.14,213.14,0,0,0,296,16.75,211.86,211.86,0,0,0,213.09,0Z"/><path class="cls-1" d="M322.15,258.4c-.86,17.58-4.86,33.16-17.72,46s-28.45,16.86-46,17.72c-15.15.86-30.16.71-45.31.71s-30.17.15-45.32-.71c-17.58-.86-33.16-4.86-46-17.72S104.88,276,104,258.4c-.86-15.15-.71-30.16-.71-45.31s-.15-30.17.71-45.32c.86-17.58,4.86-33.16,17.73-46s28.44-16.87,46-17.73c15.15-.86,30.16-.71,45.32-.71s30.16-.15,45.31.71c17.58.86,33.16,4.86,46,17.73s16.86,28.44,17.72,46c.86,15.15.71,30.16.71,45.32S323,243.25,322.15,258.4ZM148.33,127.46a37.41,37.41,0,0,0-20.87,20.87c-5.71,14.44-4.43,48.75-4.43,64.76s-1.28,50.31,4.43,64.75a37.41,37.41,0,0,0,20.87,20.87c14.44,5.72,48.75,4.43,64.76,4.43s50.31,1.29,64.75-4.43a37.41,37.41,0,0,0,20.87-20.87c5.72-14.44,4.43-48.75,4.43-64.75s1.29-50.32-4.43-64.76a37.41,37.41,0,0,0-20.87-20.87c-14.44-5.71-48.75-4.43-64.75-4.43S162.77,121.75,148.33,127.46ZM213.09,269.4a56.32,56.32,0,1,1,56.31-56.31A56.23,56.23,0,0,1,213.09,269.4Zm0-92.91a36.6,36.6,0,1,0,36.59,36.6A36.67,36.67,0,0,0,213.09,176.49Zm58.6-8.86a13.15,13.15,0,1,1,13.15-13.15A13.12,13.12,0,0,1,271.69,167.63Z"/></g></g></svg>