<svg width="36" height="35" viewBox="0 0 36 35" fill="none" xmlns="http://www.w3.org/2000/svg">
<rect x="15" y="12" width="7" height="9" fill="black"/>
<path d="M16 20L21.19 17L16 14V20ZM27.56 12.17C27.69 12.64 27.78 13.27 27.84 14.07C27.91 14.87 27.94 15.56 27.94 16.16L28 17C28 19.19 27.84 20.8 27.56 21.83C27.31 22.73 26.73 23.31 25.83 23.56C25.36 23.69 24.5 23.78 23.18 23.84C21.88 23.91 20.69 23.94 19.59 23.94L18 24C13.81 24 11.2 23.84 10.17 23.56C9.27 23.31 8.69 22.73 8.44 21.83C8.31 21.36 8.22 20.73 8.16 19.93C8.09 19.13 8.06 18.44 8.06 17.84L8 17C8 14.81 8.16 13.2 8.44 12.17C8.69 11.27 9.27 10.69 10.17 10.44C10.64 10.31 11.5 10.22 12.82 10.16C14.12 10.09 15.31 10.06 16.41 10.06L18 10C22.19 10 24.8 10.16 25.83 10.44C26.73 10.69 27.31 11.27 27.56 12.17Z" fill="white"/>
<rect x="0.5" y="0.5" width="34.5224" height="34" rx="17" stroke="white"/>
</svg>
